<?xml version="1.0" encoding="UTF-8" standalone="no"?>
<svg xmlns:dc="http://purl.org/dc/elements/1.1/" xmlns:cc="http://creativecommons.org/ns#"
  xmlns:rdf="http://www.w3.org/1999/02/22-rdf-syntax-ns#" xmlns:svg="http://www.w3.org/2000/svg"
  xmlns="http://www.w3.org/2000/svg" viewBox="0 0 200.17333 200.17332" height="248.17333" width="248.17333"
  xml:space="preserve" id="svg2" version="1.1">
  <metadata id="metadata8">
    <rdf:RDF>
      <cc:Work rdf:about="">
        <dc:format>image/svg+xml</dc:format>
        <dc:type rdf:resource="http://purl.org/dc/dcmitype/StillImage" />
      </cc:Work>
    </rdf:RDF>
  </metadata>
  <defs id="defs6" />
  <g transform="matrix(1.3333333,0,0,-1.3333333,0,248.17333)" id="g10">
    <g transform="scale(0.1)" id="g12">
      <path id="path130" style="fill:#969492;fill-opacity:1;fill-rule:nonzero;stroke:none"
        d="m 4833.47,213.488 c 0.66,-0.5 1.26,-1.058 1.89,-1.59 -0.62,0.532 -1.23,1.082 -1.89,1.59" />
      <path id="path132" style="fill:#969492;fill-opacity:1;fill-rule:nonzero;stroke:none"
        d="m 4827.18,217.57 c 1.19,-0.66 2.34,-1.371 3.45,-2.109 -1.09,0.73 -2.24,1.437 -3.45,2.109" />
      <path id="path134" style="fill:#969492;fill-opacity:1;fill-rule:nonzero;stroke:none"
        d="m 4821.13,220.469 c 1.02,-0.418 2.05,-0.84 3.02,-1.309 -0.96,0.461 -1.98,0.891 -3.02,1.309" />
      <path id="path150" style="fill:#696c6c;fill-opacity:1;fill-rule:nonzero;stroke:none"
        d="M 1135.93,1023.92 566.238,738.129 139.551,951.953 V 1216.63 L 0,1131.39 V 910.832 C 0,897.355 3.73047,884.16 10.793,872.688 17.8516,861.199 27.9414,851.93 39.9727,845.84 L 533.586,596.34 c 10.273,-5.199 21.562,-7.789 32.852,-7.789 11.16,0 22.324,2.539 32.507,7.621 l 496.905,248.047 c 12.14,6.062 22.32,15.359 29.45,26.918 7.12,11.543 10.88,24.812 10.85,38.379 l -0.22,114.324 v 0.08" />
      <path id="path152" style="fill:#696c6c;fill-opacity:1;fill-rule:nonzero;stroke:none"
        d="m 1125.36,1568.49 c -7.06,11.48 -17.15,20.76 -29.18,26.84 l -493.61,249.51 c -20.441,10.33 -44.894,10.4 -65.375,0.16 L 40.293,1596.95 C 28.1563,1590.89 17.9688,1581.59 10.8516,1570.05 3.72266,1558.5 -0.0273438,1545.23 0,1531.67 l 0.214844,-114.32 v -0.09 L 569.902,1703.06 996.594,1489.22 v -264.67 l 139.556,85.24 v 220.55 c 0,13.48 -3.73,26.67 -10.79,38.15" />
    </g>
  </g>
</svg>