<svg xmlns="http://www.w3.org/2000/svg" xmlns:xlink="http://www.w3.org/1999/xlink" version="1.1" width="528pt" height="188pt" viewBox="0 0 528 188">
<defs>
<clipPath id="clip_0">
<path transform="matrix(1,0,0,-1,-85,258)" d="M0 0H697.386V327.368H0Z"/>
</clipPath>
<clipPath id="clip_1">
<path transform="matrix(1,0,0,-1,-85,258)" d="M0 327.368H697.386V0H0Z"/>
</clipPath>
</defs>
<g clip-path="url(#clip_0)">
<g clip-path="url(#clip_1)">
<path transform="matrix(1,0,0,-1,143.8535,150.025)" d="M0 0-.003 .003C.015-.014 .033-.028 .052-.045 .035-.03 .016-.015 0 0M-.537 .661C-.526 .644-.516 .626-.505 .609-.516 .627-.526 .644-.537 .661M-1.127 2.336C-1.122 2.306-1.117 2.276-1.112 2.247-1.117 2.276-1.122 2.306-1.127 2.336M-1.116 17.633C-1.12 17.611-1.123 17.589-1.126 17.567-1.123 17.589-1.12 17.611-1.116 17.633M.008 19.958C.011 19.961 .014 19.963 .017 19.966 .011 19.96 .006 19.953 0 19.948 .003 19.951 .005 19.955 .008 19.958M3.327 4.091C3.314 4.112 3.299 4.13 3.287 4.153 3.299 4.13 3.314 4.112 3.327 4.091M3.545 3.817C3.524 3.836 3.501 3.848 3.482 3.868 3.501 3.849 3.525 3.835 3.545 3.817M13.651-.012V3.492H4.984 4.935C4.504 3.492 4.064 3.499 3.722 3.688 3.623 3.743 3.537 3.813 3.463 3.896 3.454 3.905 3.447 3.92 3.438 3.931 3.375 4.008 3.319 4.092 3.275 4.191 3.267 4.21 3.263 4.234 3.255 4.255 3.169 4.475 3.122 4.741 3.122 5.068V8.528L12.257 8.802H12.262V12.336L3.122 12.641V16.1C3.122 16.934 3.122 17.797 4.725 17.797H13.651V21.331L13.647 21.332C11.693 21.603 3.784 21.816 3.704 21.818 3.666 21.819 3.629 21.819 3.59 21.819 3.121 21.819 2.584 21.773 2.042 21.648 2.04 21.647 2.037 21.646 2.035 21.646 1.898 21.614 1.762 21.577 1.626 21.534 1.622 21.532 1.618 21.531 1.613 21.53 1.108 21.368 .618 21.118 .187 20.751 .152 20.723 .117 20.695 .084 20.665 .058 20.641 .027 20.621 .001 20.595-.026 20.568-.045 20.532-.071 20.505-.226 20.345-.371 20.173-.499 19.975-.528 19.929-.553 19.876-.581 19.828-.68 19.659-.768 19.476-.845 19.278-.87 19.214-.899 19.153-.922 19.086-.997 18.864-1.055 18.621-1.102 18.364-1.119 18.268-1.133 18.168-1.146 18.067-1.174 17.846-1.19 17.613-1.196 17.367-1.198 17.308-1.209 17.256-1.209 17.194V3.944C-1.209 3.875-1.196 3.816-1.194 3.749-1.188 3.513-1.173 3.287-1.145 3.075-1.131 2.97-1.113 2.866-1.094 2.765-1.054 2.548-1.003 2.345-.94 2.155-.921 2.096-.905 2.032-.883 1.974-.799 1.751-.696 1.552-.585 1.366-.546 1.301-.507 1.237-.465 1.176-.338 .991-.2 .822-.049 .674-.033 .658-.022 .639-.007 .623 .062 .559 .138 .505 .21 .446 .238 .423 .267 .398 .296 .376 .39 .306 .486 .242 .585 .183 .622 .16 .658 .137 .695 .115 .791 .062 .889 .012 .989-.034 1.032-.055 1.076-.074 1.12-.094 1.219-.135 1.317-.173 1.417-.207 1.465-.224 1.511-.239 1.559-.254 1.661-.285 1.764-.315 1.868-.341 1.909-.351 1.949-.359 1.99-.369 2.104-.395 2.219-.418 2.334-.437 2.354-.44 2.373-.442 2.393-.446 2.804-.51 3.21-.537 3.588-.537 3.733-.537 3.877-.535 4.014-.528 4.093-.525 11.907-.251 13.647-.013Z" fill="#6d7071"/>
<path transform="matrix(1,0,0,-1,178.1836,145.0025)" d="M0 0C.001 .006 .002 .011 .004 .017 .002 .011 .001 .006 0 0M-.312-1.14C-.312-1.135-.311-1.131-.309-1.126-.311-1.131-.312-1.135-.312-1.14M-3.952 4.271C-3.952 1.445-4.398-.084-5.281-.882-5.297-.895-5.313-.906-5.328-.919-5.411-.99-5.496-1.058-5.587-1.117-5.622-1.141-5.661-1.159-5.698-1.181-5.773-1.225-5.848-1.27-5.928-1.308-5.972-1.328-6.021-1.344-6.065-1.362-6.146-1.396-6.225-1.429-6.309-1.456-6.34-1.466-6.375-1.473-6.407-1.482-6.911-1.627-7.489-1.682-8.146-1.682-9.669-1.682-10.83-1.499-11.551-.608-12.235 .238-12.526 1.697-12.526 4.271V16.796H-16.859V4.271C-16.859 4.07-16.85 3.889-16.846 3.695-16.843 3.528-16.84 3.363-16.834 3.203-16.826 2.979-16.817 2.757-16.805 2.543-16.787 2.243-16.765 1.953-16.737 1.676-16.72 1.498-16.698 1.328-16.678 1.158-16.652 .955-16.623 .76-16.593 .568-16.563 .377-16.529 .189-16.493 .007-16.45-.21-16.403-.418-16.354-.619-16.326-.729-16.299-.842-16.269-.949-16.197-1.202-16.119-1.438-16.037-1.664-16.004-1.754-15.971-1.842-15.936-1.928-15.846-2.152-15.75-2.364-15.648-2.563-15.611-2.634-15.572-2.703-15.534-2.771-15.425-2.967-15.312-3.151-15.191-3.321-15.149-3.38-15.105-3.436-15.061-3.492-14.934-3.656-14.803-3.813-14.665-3.953-14.649-3.969-14.636-3.989-14.62-4.005-14.589-4.036-14.554-4.058-14.521-4.088-14.373-4.227-14.22-4.356-14.062-4.472-14.008-4.511-13.951-4.546-13.896-4.582-13.738-4.687-13.576-4.784-13.409-4.868-13.347-4.899-13.283-4.928-13.22-4.957-13.056-5.031-12.89-5.1-12.72-5.158-12.645-5.184-12.568-5.207-12.492-5.229-12.331-5.278-12.168-5.321-12.003-5.358-11.908-5.38-11.813-5.397-11.718-5.415-11.57-5.442-11.423-5.467-11.272-5.486-10.444-5.598-9.582-5.612-8.725-5.612-8.628-5.612-8.531-5.612-8.437-5.611H-8.146C-7.393-5.611-6.561-5.605-5.723-5.509-5.653-5.501-5.584-5.492-5.515-5.483-5.379-5.465-5.244-5.444-5.108-5.42-4.971-5.396-4.834-5.368-4.698-5.337-4.61-5.316-4.522-5.295-4.436-5.271-4.271-5.228-4.107-5.177-3.945-5.12-3.871-5.094-3.798-5.067-3.725-5.038-3.563-4.975-3.404-4.902-3.247-4.824-3.171-4.785-3.096-4.745-3.021-4.703-2.873-4.62-2.728-4.528-2.586-4.429-2.547-4.401-2.505-4.382-2.466-4.353-2.437-4.331-2.413-4.303-2.384-4.28-2.199-4.137-2.02-3.979-1.848-3.803-1.799-3.752-1.752-3.698-1.705-3.646-1.554-3.479-1.408-3.298-1.27-3.1-1.223-3.032-1.177-2.963-1.131-2.892-1.007-2.699-.889-2.492-.777-2.27-.732-2.181-.688-2.09-.646-1.997-.547-1.779-.455-1.549-.368-1.304-.328-1.19-.289-1.074-.252-.956-.176-.714-.105-.459-.042-.19-.009-.052 .022 .091 .052 .235 .106 .507 .156 .789 .199 1.087 .223 1.246 .242 1.41 .261 1.576 .296 1.878 .326 2.188 .349 2.516 .361 2.694 .369 2.882 .377 3.067 .389 3.334 .396 3.61 .4 3.894 .402 4.022 .411 4.14 .411 4.271V16.796H-3.952Z" fill="#6d7071"/>
<path transform="matrix(1,0,0,-1,195.05469,129.2155)" d="M0 0C-.007 .002-.013 .004-.019 .007-.012 .004-.007 .002 0 0M-1.614-8.776C-1.632-8.787-1.653-8.792-1.67-8.802-1.653-8.792-1.632-8.787-1.614-8.776M-1.303-8.503C-1.312-8.515-1.326-8.521-1.337-8.533-1.326-8.521-1.312-8.515-1.303-8.503M-1.914-2.974C-1.805-3.024-1.702-3.084-1.609-3.156-1.571-3.186-1.537-3.224-1.501-3.258-1.434-3.321-1.368-3.387-1.31-3.464-1.265-3.524-1.226-3.596-1.186-3.665-1.146-3.735-1.104-3.803-1.07-3.882-1.031-3.972-1.001-4.076-.969-4.18-.942-4.264-.913-4.343-.893-4.436-.87-4.533-.856-4.648-.839-4.758-.819-4.884-.796-5.003-.784-5.142-.782-5.161-.782-5.185-.781-5.204-.764-5.429-.753-5.666-.753-5.926-.753-8.583-1.468-9.05-2.972-9.05H-8.092V-2.768H-2.972C-2.585-2.768-2.256-2.825-1.977-2.941-1.955-2.95-1.936-2.964-1.914-2.974M-8.123-12.404-4.334-12.825-.599-21.244-.597-21.247H4.292L0-12.492 .037-12.481C.684-12.28 1.568-12.004 2.303-11.096 2.379-11.001 2.448-10.895 2.518-10.789 2.528-10.773 2.539-10.76 2.55-10.744 2.619-10.637 2.683-10.521 2.745-10.404 2.769-10.361 2.792-10.32 2.814-10.275 2.87-10.162 2.922-10.042 2.973-9.919 2.996-9.86 3.021-9.803 3.044-9.74 3.092-9.613 3.135-9.48 3.177-9.344 3.197-9.277 3.218-9.211 3.237-9.141 3.279-8.988 3.315-8.828 3.351-8.666 3.364-8.603 3.378-8.542 3.391-8.477 3.43-8.274 3.462-8.063 3.49-7.847 3.495-7.812 3.5-7.778 3.505-7.742 3.572-7.184 3.61-6.581 3.61-5.926 3.61-5.271 3.566-4.665 3.485-4.103 3.485-4.097 3.483-4.091 3.482-4.086 3.445-3.826 3.399-3.576 3.345-3.337 3.327-3.263 3.306-3.195 3.287-3.123 3.244-2.956 3.201-2.788 3.148-2.631 3.121-2.547 3.088-2.472 3.059-2.392 3.007-2.253 2.956-2.114 2.897-1.984 2.869-1.922 2.836-1.866 2.806-1.806 2.736-1.667 2.668-1.528 2.59-1.4 2.58-1.384 2.568-1.37 2.559-1.354 2.353-1.021 2.119-.721 1.853-.462 1.83-.44 1.803-.428 1.78-.407 1.573-.215 1.351-.047 1.115 .102 1.06 .138 1.007 .178 .949 .211 .693 .358 .419 .477 .135 .58 .06 .607-.014 .639-.092 .664-.396 .761-.718 .83-1.049 .884-1.125 .896-1.198 .913-1.277 .924-1.653 .974-2.046 .996-2.449 1.001-2.491 1.001-2.526 1.009-2.57 1.009H-12.455V-21.247H-8.123Z" fill="#6d7071"/>
<path transform="matrix(1,0,0,-1,215.66699,129.3785)" d="M0 0C.109-.045 .219-.09 .323-.141 .221-.091 .111-.045 0 0" fill="#6d7071"/>
<path transform="matrix(1,0,0,-1,216.90921,130.0777)" d="M0 0C.068-.052 .131-.109 .196-.164 .132-.109 .068-.053 0 0" fill="#6d7071"/>
<path transform="matrix(1,0,0,-1,202.2998,134.65201)" d="M0 0C.048 .208 .092 .424 .146 .619 .092 .425 .048 .209 0 0M-.238-1.289C-.207-1.074-.18-.851-.143-.647-.18-.85-.207-1.074-.238-1.289M-.388-1.918C-.375-1.771-.367-1.615-.353-1.473-.367-1.613-.375-1.772-.388-1.918M.343 1.226C.398 1.389 .448 1.56 .51 1.713 .449 1.561 .398 1.389 .343 1.226M.946 2.652C.897 2.562 .854 2.457 .808 2.362 .855 2.457 .896 2.562 .946 2.652M1.46 3.455C1.456 3.45 1.453 3.444 1.449 3.439 1.453 3.444 1.456 3.45 1.46 3.455M4.717-15.595C4.692-15.589 4.671-15.581 4.646-15.575 4.671-15.581 4.692-15.589 4.717-15.595M3.204-15.063C3.181-15.05 3.159-15.034 3.135-15.021 3.159-15.034 3.181-15.05 3.204-15.063M3.937-15.37C3.881-15.351 3.831-15.325 3.777-15.305 3.831-15.325 3.882-15.351 3.937-15.37M12.043-10.978C12.007-11.017 11.966-11.053 11.927-11.09 11.857-11.155 11.786-11.219 11.71-11.276 11.675-11.303 11.638-11.328 11.601-11.354 11.522-11.406 11.44-11.454 11.356-11.5 11.299-11.53 11.24-11.561 11.178-11.589 11.117-11.616 11.055-11.641 10.992-11.664 10.884-11.705 10.771-11.744 10.647-11.778 10.626-11.784 10.604-11.79 10.581-11.796 10.066-11.927 9.413-12.001 8.559-12.001 7.663-12.001 6.899-11.946 6.267-11.76 6.26-11.758 6.253-11.757 6.246-11.755 5.611-11.564 5.108-11.238 4.737-10.696 4.488-10.332 4.296-9.874 4.152-9.277 4.151-9.272 4.15-9.269 4.149-9.265 3.91-8.26 3.809-6.858 3.809-4.834 3.809-1.357 4.146 .558 4.935 1.571 5.725 2.587 6.989 2.669 8.559 2.669 10.369 2.669 11.487 2.485 12.218 1.516 12.981 .498 13.309-1.401 13.309-4.834 13.309-7.911 13.006-9.654 12.299-10.662 12.262-10.715 12.219-10.763 12.18-10.813 12.134-10.869 12.091-10.927 12.043-10.978M16.298 2.464C16.268 2.523 16.241 2.592 16.21 2.65 16.242 2.592 16.268 2.523 16.298 2.464M16.753 1.366C16.715 1.477 16.681 1.598 16.641 1.702 16.682 1.597 16.715 1.477 16.753 1.366M17.341-1.126C17.317-.974 17.3-.81 17.274-.664 17.3-.811 17.317-.974 17.341-1.126M17.497-2.394C17.488-2.303 17.484-2.201 17.476-2.112 17.484-2.202 17.488-2.302 17.497-2.394M17.096 .162C17.062 .308 17.032 .464 16.995 .603 17.032 .463 17.062 .308 17.096 .162M17.292-9.382C17.304-9.313 17.312-9.235 17.323-9.166 17.312-9.236 17.304-9.313 17.292-9.382M17.024-10.597C17.044-10.523 17.06-10.438 17.078-10.363 17.059-10.439 17.044-10.522 17.024-10.597M16.683-11.659C16.701-11.609 16.716-11.553 16.734-11.502 16.716-11.553 16.701-11.609 16.683-11.659M16.265-12.58C16.271-12.569 16.275-12.557 16.281-12.546 16.275-12.557 16.271-12.569 16.265-12.58M14.533-14.601C14.559-14.583 14.582-14.563 14.606-14.545 14.765-14.426 14.91-14.305 15.044-14.181 15.006-14.215 14.965-14.242 14.927-14.275 14.979-14.229 15.035-14.189 15.087-14.142 15.072-14.154 15.058-14.167 15.044-14.181 15.089-14.139 15.141-14.108 15.186-14.065 15.583-13.674 15.927-13.205 16.226-12.662 16.227-12.661 16.229-12.659 16.229-12.657 16.379-12.386 16.515-12.091 16.64-11.778 16.643-11.77 16.647-11.763 16.65-11.754 17.318-10.072 17.641-7.808 17.641-4.834 17.641-2.3 17.419-.267 16.969 1.348 16.968 1.352 16.967 1.355 16.965 1.359 16.859 1.736 16.741 2.093 16.61 2.424 16.599 2.454 16.584 2.479 16.572 2.509 16.45 2.807 16.32 3.092 16.177 3.353 16.157 3.389 16.134 3.418 16.113 3.454 15.818 3.967 15.488 4.419 15.104 4.791 15.011 4.882 14.905 4.957 14.806 5.04 14.861 4.993 14.917 4.945 14.97 4.896 14.831 5.022 14.689 5.144 14.541 5.252 14.563 5.235 14.588 5.221 14.609 5.204 14.521 5.271 14.428 5.333 14.335 5.395 14.346 5.388 14.356 5.38 14.366 5.373 14.21 5.479 14.048 5.575 13.881 5.664 13.913 5.647 13.946 5.631 13.978 5.613 13.911 5.65 13.847 5.69 13.778 5.726 13.777 5.726 13.776 5.727 13.775 5.727 13.749 5.74 13.718 5.75 13.69 5.764 13.693 5.762 13.696 5.761 13.699 5.759 13.563 5.825 13.421 5.881 13.279 5.937 13.308 5.926 13.339 5.915 13.367 5.903 13.206 5.971 13.042 6.034 12.87 6.09 12.878 6.088 12.885 6.084 12.893 6.082 12.861 6.092 12.828 6.1 12.797 6.109 12.815 6.104 12.839 6.1 12.857 6.094 12.654 6.16 12.451 6.226 12.231 6.277 11.271 6.501 10.172 6.597 8.559 6.597 5.795 6.597 3.635 6.29 2.071 4.791 1.873 4.602 1.691 4.389 1.517 4.165 1.511 4.156 1.503 4.15 1.496 4.142 1.329 3.925 1.178 3.685 1.032 3.434 1.016 3.406 .997 3.383 .981 3.354 .822 3.073 .678 2.768 .545 2.444 .544 2.44 .542 2.438 .541 2.434-.177 .68-.524-1.696-.524-4.834-.524-6.686-.403-8.258-.161-9.592-.149-9.657-.134-9.714-.121-9.777-.053-10.133 .021-10.479 .108-10.798 .137-10.902 .172-10.991 .202-11.092 .281-11.354 .361-11.616 .454-11.854 .497-11.962 .547-12.055 .592-12.158 .684-12.368 .773-12.58 .877-12.77 .922-12.852 .975-12.92 1.021-12.997 1.291-13.446 1.588-13.85 1.933-14.179 3.456-15.639 5.598-15.932 8.559-15.932 9.13-15.932 9.699-15.909 10.265-15.869 10.431-15.857 10.596-15.844 10.757-15.828 10.943-15.809 11.129-15.788 11.313-15.762 11.642-15.715 11.961-15.658 12.268-15.585 12.34-15.567 12.408-15.546 12.479-15.526 12.513-15.518 12.543-15.507 12.576-15.497 12.718-15.459 12.85-15.418 12.979-15.376 13.053-15.351 13.128-15.326 13.201-15.299 13.304-15.261 13.407-15.224 13.502-15.184 13.451-15.205 13.395-15.216 13.344-15.236 13.759-15.068 14.15-14.868 14.51-14.615 14.486-14.632 14.466-14.654 14.442-14.671 14.476-14.648 14.502-14.624 14.533-14.601" fill="#6d7071"/>
<path transform="matrix(1,0,0,-1,215.15729,129.1881)" d="M0 0C.004-.002 .009-.003 .013-.004 .009-.003 .004-.002 0 0" fill="#6d7071"/>
<path transform="matrix(1,0,0,-1,216.2774,129.6686)" d="M0 0C.123-.068 .241-.143 .357-.219 .244-.143 .125-.07 0 0" fill="#6d7071"/>
<path transform="matrix(1,0,0,-1,234.5918,137.83261)" d="M0 0C-.009-.011-.019-.021-.027-.032-.018-.021-.009-.011 0 0" fill="#6d7071"/>
<path transform="matrix(1,0,0,-1,236.7237,129.5182)" d="M0 0C-.007 .003-.013 .007-.019 .01-.013 .007-.007 .003 0 0M2.855-6.934C2.852-7.024 2.851-7.12 2.846-7.209 2.851-7.121 2.852-7.023 2.855-6.934M2.749-7.546C2.762-7.458 2.771-7.364 2.78-7.272 2.771-7.364 2.762-7.457 2.749-7.546M2.597-8.404C2.611-8.338 2.625-8.27 2.639-8.202 2.625-8.27 2.611-8.338 2.597-8.404M2.391-9.168C2.405-9.121 2.421-9.075 2.436-9.027 2.421-9.075 2.405-9.121 2.391-9.168M2.132-9.85C2.146-9.817 2.161-9.787 2.175-9.754 2.161-9.786 2.146-9.817 2.132-9.85M1.812-10.465C1.829-10.438 1.846-10.414 1.861-10.387 1.847-10.414 1.829-10.438 1.812-10.465M1.427-11.018C1.45-10.988 1.475-10.963 1.497-10.934 1.475-10.963 1.45-10.988 1.427-11.018M1.059-11.426C1.039-11.444 1.018-11.458 .998-11.476 1.024-11.451 1.053-11.429 1.079-11.403 1.071-11.41 1.065-11.419 1.059-11.426M.479-11.885C.514-11.86 .55-11.838 .585-11.813 .55-11.838 .514-11.86 .479-11.885M-.063-12.192C-.021-12.173 .02-12.152 .062-12.131 .02-12.152-.021-12.173-.063-12.192M-.618-12.417C-.575-12.402-.532-12.387-.489-12.371-.532-12.387-.575-12.402-.618-12.417M-1.177-12.571C-1.14-12.563-1.103-12.553-1.065-12.544-1.103-12.554-1.14-12.563-1.177-12.571M-1.682-12.661C-1.697-12.663-1.714-12.667-1.729-12.669-1.713-12.667-1.697-12.664-1.682-12.661M-3.508-3.106C-3.435-3.111-3.362-3.114-3.289-3.126-3.359-3.115-3.434-3.111-3.508-3.106M-3.045-3.184C-2.982-3.201-2.921-3.22-2.86-3.243-2.919-3.22-2.981-3.201-3.045-3.184M-2.628-3.354C-2.579-3.381-2.532-3.411-2.486-3.443-2.531-3.411-2.579-3.382-2.628-3.354M-2.26-3.632C-2.227-3.664-2.195-3.699-2.164-3.735-2.194-3.699-2.227-3.665-2.26-3.632M-1.951-4.032C-1.931-4.066-1.91-4.102-1.892-4.139-1.91-4.102-1.931-4.066-1.951-4.032M-1.71-4.572C-1.699-4.606-1.687-4.639-1.677-4.674-1.687-4.639-1.699-4.606-1.71-4.572M-1.541-5.302C-1.539-5.319-1.535-5.334-1.533-5.352-1.535-5.334-1.539-5.319-1.541-5.302M-1.632-7.238C-1.635-7.25-1.639-7.261-1.642-7.272-1.639-7.261-1.635-7.25-1.632-7.238M-3.227-8.926C-3.281-8.935-3.341-8.936-3.397-8.94-3.341-8.935-3.279-8.935-3.227-8.926M-2.762-8.792C-2.834-8.822-2.912-8.842-2.988-8.863-2.912-8.841-2.833-8.822-2.762-8.792M-2.378-8.564C-2.435-8.61-2.498-8.645-2.561-8.682-2.498-8.645-2.435-8.609-2.378-8.564M-1.868-7.904C-1.887-7.942-1.909-7.972-1.93-8.008-1.99-8.115-2.053-8.223-2.132-8.314-2.11-8.289-2.086-8.267-2.065-8.239-2.101-8.287-2.141-8.326-2.179-8.368-2.172-8.361-2.166-8.354-2.159-8.347-2.381-8.595-2.671-8.781-3.053-8.88-3.058-8.881-3.063-8.883-3.068-8.884-3.264-8.933-3.481-8.96-3.727-8.96H-8.785V-2.465H-3.727C-3.547-2.465-3.38-2.481-3.223-2.512-3.204-2.515-3.188-2.52-3.17-2.524-3.036-2.553-2.912-2.593-2.795-2.644-2.765-2.657-2.734-2.672-2.704-2.687-2.605-2.736-2.514-2.796-2.427-2.862-2.391-2.891-2.354-2.92-2.318-2.952-2.246-3.019-2.18-3.092-2.116-3.171-2.077-3.221-2.039-3.273-2.003-3.33-1.95-3.41-1.902-3.496-1.857-3.588-1.822-3.661-1.79-3.741-1.76-3.824-1.723-3.923-1.687-4.023-1.657-4.134-1.632-4.228-1.612-4.334-1.592-4.438-1.567-4.562-1.542-4.683-1.526-4.817-1.513-4.928-1.51-5.056-1.501-5.176-1.492-5.313-1.479-5.443-1.478-5.591-1.478-5.669-1.481-5.747-1.483-5.825-1.487-6.017-1.493-6.204-1.508-6.375-1.514-6.451-1.521-6.525-1.529-6.601-1.553-6.804-1.582-6.992-1.62-7.164-1.628-7.2-1.634-7.239-1.643-7.275-1.682-7.433-1.731-7.566-1.782-7.698-1.801-7.745-1.815-7.796-1.836-7.841-1.83-7.828-1.823-7.817-1.817-7.804-1.826-7.824-1.836-7.844-1.845-7.864-1.842-7.856-1.84-7.848-1.836-7.841-1.847-7.863-1.857-7.883-1.868-7.904M-8.785-12.133C-8.537-12.206-4.586-12.68-3.387-12.738-2.604-12.766-1.705-12.736-.834-12.488-.808-12.48-.781-12.474-.754-12.465-.612-12.423-.473-12.372-.334-12.316-.289-12.299-.246-12.28-.202-12.261-.075-12.206 .049-12.145 .172-12.077 .226-12.048 .277-12.016 .33-11.983 .444-11.914 .557-11.841 .667-11.759 .723-11.718 .775-11.671 .829-11.626 .907-11.562 .989-11.505 1.065-11.433 1.094-11.406 1.117-11.373 1.145-11.345 1.177-11.312 1.207-11.275 1.238-11.241 1.35-11.121 1.458-10.997 1.558-10.862 1.589-10.82 1.616-10.773 1.646-10.729 1.742-10.592 1.835-10.449 1.919-10.296 1.952-10.236 1.981-10.171 2.013-10.108 2.09-9.956 2.164-9.799 2.23-9.633 2.261-9.559 2.287-9.479 2.315-9.401 2.378-9.228 2.437-9.047 2.489-8.859 2.512-8.778 2.533-8.695 2.554-8.611 2.606-8.397 2.652-8.175 2.692-7.943 2.705-7.873 2.718-7.803 2.729-7.73 2.774-7.432 2.81-7.121 2.835-6.797 2.836-6.78 2.839-6.765 2.84-6.747 2.867-6.368 2.887-5.977 2.887-5.562 2.887-4.846 2.832-4.188 2.732-3.582 2.723-3.52 2.708-3.463 2.697-3.402 2.657-3.185 2.613-2.971 2.56-2.769 2.535-2.673 2.505-2.587 2.478-2.496 2.43-2.338 2.381-2.182 2.325-2.033 2.287-1.935 2.244-1.845 2.203-1.751 2.146-1.623 2.09-1.494 2.026-1.374 1.981-1.287 1.931-1.21 1.882-1.129 1.812-1.013 1.743-.896 1.667-.788 1.623-.728 1.575-.674 1.529-.616 1.439-.502 1.35-.387 1.251-.283 1.243-.275 1.236-.27 1.229-.263 1.098-.127 .963 .005 .815 .122 .787 .145 .751 .159 .721 .182 .525 .331 .32 .458 .108 .572 .044 .606-.02 .644-.087 .676-.344 .8-.61 .898-.882 .98-.943 .999-1.005 1.018-1.068 1.035-1.376 1.117-1.687 1.177-2.001 1.219-2.064 1.228-2.128 1.236-2.193 1.243-2.554 1.283-2.913 1.302-3.265 1.305-3.308 1.305-3.344 1.312-3.387 1.312H-13.117V-20.944H-8.785Z" fill="#6d7071"/>
<path transform="matrix(1,0,0,-1,243.58499,132.3922)" d="M0 0C-.004-.021-.007-.044-.01-.065-.007-.044-.004-.021 0 0M1.124 2.325C1.126 2.327 1.13 2.329 1.132 2.332 1.127 2.327 1.122 2.321 1.116 2.315 1.119 2.318 1.121 2.322 1.124 2.325M4.279-13.094C4.279-13.096 4.279-13.097 4.28-13.098 4.28-13.096 4.279-13.096 4.279-13.094M4.444-13.544C4.432-13.521 4.415-13.504 4.403-13.479 4.415-13.503 4.432-13.521 4.444-13.544M4.664-13.817C4.643-13.799 4.618-13.785 4.598-13.765 4.617-13.785 4.643-13.799 4.664-13.817M1.116-17.003C1.115-17.002 1.114-17.001 1.113-16.999 1.129-17.015 1.146-17.028 1.162-17.043 1.147-17.029 1.13-17.016 1.116-17.003M.579-16.343C.59-16.359 .6-16.376 .61-16.392 .6-16.376 .59-16.359 .579-16.343M-.011-14.668C-.007-14.697-.002-14.726 .003-14.754-.002-14.726-.007-14.697-.011-14.668M-.028-14.559C-.015-14.664 .003-14.766 .021-14.867 .062-15.085 .114-15.29 .177-15.48 .195-15.538 .211-15.6 .231-15.656 .316-15.881 .419-16.08 .532-16.268 .57-16.332 .609-16.396 .651-16.456 .778-16.642 .916-16.811 1.067-16.959 1.083-16.975 1.094-16.995 1.109-17.01 1.177-17.074 1.252-17.127 1.324-17.186 1.354-17.209 1.383-17.234 1.412-17.257 1.506-17.327 1.602-17.39 1.7-17.45 1.737-17.473 1.774-17.496 1.812-17.518 1.907-17.571 2.005-17.62 2.104-17.666 2.148-17.687 2.192-17.707 2.237-17.727 2.335-17.768 2.433-17.806 2.533-17.84 2.58-17.856 2.628-17.872 2.676-17.887 2.777-17.919 2.88-17.948 2.983-17.974 3.024-17.983 3.065-17.993 3.107-18.002 3.222-18.027 3.335-18.051 3.449-18.069 3.47-18.073 3.489-18.075 3.51-18.079 3.92-18.143 4.326-18.17 4.703-18.17 4.85-18.17 4.993-18.168 5.13-18.161 5.209-18.158 13.023-17.884 14.764-17.646L14.768-17.645V-14.141H6.101 6.051C5.62-14.141 5.181-14.134 4.838-13.944 4.739-13.89 4.653-13.82 4.579-13.737 4.57-13.728 4.564-13.715 4.556-13.704 4.492-13.627 4.436-13.541 4.391-13.441 4.383-13.424 4.379-13.4 4.372-13.382 4.285-13.161 4.238-12.893 4.238-12.564V-9.104L13.373-8.831H13.378V-5.297L4.238-4.992V-1.533C4.238-.699 4.238 .164 5.839 .164H14.768V3.698L14.764 3.699C12.81 3.97 4.9 4.184 4.82 4.186 4.782 4.187 4.744 4.187 4.705 4.187 4.238 4.187 3.7 4.141 3.158 4.016 3.155 4.015 3.153 4.014 3.15 4.014 3.014 3.981 2.878 3.944 2.742 3.901 2.737 3.899 2.733 3.898 2.729 3.896 2.225 3.734 1.735 3.486 1.305 3.12 1.27 3.091 1.234 3.063 1.2 3.032 1.173 3.007 1.144 2.987 1.117 2.962 1.09 2.936 1.071 2.9 1.045 2.873 .891 2.713 .745 2.54 .617 2.342 .587 2.296 .563 2.244 .536 2.197 .437 2.026 .349 1.842 .271 1.644 .245 1.58 .217 1.521 .194 1.454 .119 1.231 .061 .988 .015 .73-.003 .635-.017 .535-.029 .436-.058 .213-.075-.021-.081-.271-.082-.329-.093-.379-.093-.438V-13.688C-.093-13.756-.081-13.813-.079-13.879-.072-14.117-.057-14.345-.028-14.559" fill="#6d7071"/>
<path transform="matrix(1,0,0,-1,273.9951,141.7604)" d="M0 0H-5.235L-2.523 7.94ZM-.113 13.554H-5.028L-12.656-8.695-12.658-8.702H-8.017L-6.38-3.778H1.021L2.628-8.699 2.629-8.702H7.239L-.112 13.551Z" fill="#6d7071"/>
<path transform="matrix(1,0,0,-1,297.9571,142.5699)" d="M0 0-8.948 14.363H-13.337V-7.893H-8.974V6.318L.005-7.893H4.334V14.363H0Z" fill="#6d7071"/>
<path transform="matrix(1,0,0,-1,323.3809,149.52701)" d="M0 0C-.058 .037-.121 .068-.177 .108-.121 .068-.058 .037 0 0M-.807 .623C-.801 .617-.795 .613-.789 .607-.795 .613-.801 .617-.807 .623M.755-.419C.681-.384 .601-.356 .528-.319 .601-.356 .681-.384 .755-.419M1.472-.704C1.42-.687 1.364-.676 1.313-.658 1.364-.676 1.42-.687 1.472-.704M.921 6.937V6.937ZM4.102 21.562C3.346 21.562 2.653 21.496 2.018 21.365 1.959 21.354 1.907 21.335 1.85 21.322 1.606 21.267 1.365 21.208 1.14 21.132 1.013 21.09 .897 21.034 .776 20.986 .631 20.927 .479 20.874 .342 20.806 .211 20.741 .094 20.664-.029 20.592-.146 20.522-.269 20.46-.38 20.383-.477 20.316-.562 20.237-.653 20.165-.778 20.066-.908 19.972-1.024 19.861-1.057 19.831-1.084 19.796-1.114 19.765-1.467 19.417-1.783 19.025-2.052 18.575-2.331 18.105-2.568 17.567-2.771 16.966-2.778 16.94-2.785 16.912-2.794 16.886-2.879 16.625-2.959 16.353-3.03 16.064-3.049 15.987-3.064 15.905-3.082 15.827-3.138 15.583-3.192 15.336-3.238 15.073-3.256 14.974-3.27 14.867-3.286 14.765-3.326 14.511-3.365 14.253-3.397 13.981-3.407 13.896-3.414 13.805-3.424 13.718-3.533 12.688-3.592 11.546-3.592 10.253-3.592 6.517-3.035 3.799-1.889 1.946-.631-.085 1.328-1.089 4.102-1.118 4.397-1.123 4.687-1.126 4.971-1.126 5.062-1.126 5.142-1.12 5.231-1.119 5.722-1.116 6.192-1.103 6.65-1.083 6.872-1.073 7.092-1.062 7.307-1.048 7.755-1.019 8.188-.981 8.604-.935 8.792-.914 8.974-.89 9.154-.864 9.57-.808 9.976-.744 10.359-.668 10.501-.64 10.636-.606 10.773-.576 11.117-.499 11.448-.414 11.766-.32 11.833-.3 11.91-.286 11.977-.266L11.979-.265V3.055H11.975C11.938 3.053 8.325 2.813 5.121 2.813 3.383 2.813 2.264 3.392 1.602 4.634 1.006 5.749 .74 7.465 .74 10.192 .74 13.553 1.04 15.422 1.739 16.442 2.423 17.438 3.496 17.633 5.121 17.633 7.513 17.633 10.38 17.373 11.876 17.218 11.947 17.211 11.972 17.208 11.975 17.208H11.979V20.56L11.976 20.561C9.492 21.272 7.211 21.562 4.102 21.562" fill="#6d7071"/>
<path transform="matrix(1,0,0,-1,352.0225,129.3785)" d="M0 0C.109-.045 .22-.09 .323-.141 .222-.091 .111-.045 0 0" fill="#6d7071"/>
<path transform="matrix(1,0,0,-1,353.2657,130.0777)" d="M0 0C.068-.052 .131-.109 .196-.164 .132-.109 .068-.053 0 0" fill="#6d7071"/>
<path transform="matrix(1,0,0,-1,338.6573,134.65201)" d="M0 0C.048 .208 .091 .424 .146 .619 .092 .425 .048 .209 0 0M-.239-1.289C-.208-1.074-.181-.851-.144-.647-.18-.85-.207-1.074-.239-1.289M-.389-1.918C-.376-1.771-.368-1.615-.353-1.473-.368-1.613-.375-1.772-.389-1.918M.343 1.226C.397 1.389 .448 1.56 .509 1.713 .449 1.561 .397 1.389 .343 1.226M.946 2.652C.896 2.562 .854 2.457 .808 2.362 .854 2.457 .896 2.562 .946 2.652M1.459 3.455C1.456 3.45 1.453 3.444 1.449 3.439 1.453 3.444 1.455 3.45 1.459 3.455M4.716-15.595C4.69-15.589 4.667-15.58 4.641-15.574 4.667-15.58 4.69-15.589 4.716-15.595M3.204-15.063C3.175-15.048 3.149-15.029 3.121-15.015 3.149-15.029 3.175-15.048 3.204-15.063M3.936-15.37C3.878-15.351 3.825-15.323 3.769-15.302 3.825-15.323 3.878-15.351 3.936-15.37M12.043-10.977C12.006-11.017 11.963-11.054 11.924-11.092 11.854-11.156 11.784-11.219 11.71-11.275 11.674-11.303 11.636-11.328 11.598-11.354 11.521-11.406 11.439-11.454 11.356-11.499 11.298-11.53 11.238-11.561 11.175-11.589 11.115-11.616 11.054-11.641 10.991-11.664 10.883-11.705 10.771-11.744 10.646-11.778 10.624-11.784 10.603-11.79 10.58-11.796 10.065-11.927 9.412-12.001 8.558-12.001 7.663-12.001 6.901-11.946 6.27-11.761 6.262-11.759 6.252-11.757 6.244-11.755 5.609-11.564 5.107-11.238 4.736-10.696 4.486-10.33 4.294-9.871 4.149-9.271 4.149-9.269 4.148-9.267 4.147-9.265 3.908-8.26 3.807-6.858 3.807-4.834 3.807-1.357 4.144 .558 4.933 1.571 5.724 2.587 6.987 2.669 8.558 2.669 10.368 2.669 11.487 2.485 12.216 1.516 12.981 .498 13.308-1.401 13.308-4.834 13.308-7.911 13.006-9.654 12.297-10.662 12.258-10.718 12.214-10.769 12.171-10.821 12.129-10.874 12.088-10.929 12.043-10.977M16.296 2.466C16.266 2.524 16.239 2.593 16.209 2.649 16.24 2.592 16.266 2.525 16.296 2.466M16.749 1.374C16.712 1.481 16.679 1.599 16.64 1.701 16.679 1.599 16.712 1.481 16.749 1.374M17.336-1.103C17.314-.96 17.297-.805 17.273-.667 17.298-.806 17.314-.959 17.336-1.103M17.492-2.348C17.485-2.273 17.481-2.189 17.475-2.117 17.481-2.19 17.485-2.273 17.492-2.348M17.092 .174C17.059 .315 17.03 .467 16.994 .602 17.03 .466 17.059 .315 17.092 .174M17.291-9.38C17.302-9.32 17.309-9.252 17.318-9.191 17.309-9.252 17.302-9.319 17.291-9.38M17.023-10.595C17.042-10.527 17.056-10.45 17.072-10.381 17.056-10.45 17.042-10.527 17.023-10.595M16.682-11.658C16.699-11.612 16.713-11.559 16.729-11.513 16.713-11.56 16.699-11.612 16.682-11.658M16.264-12.58C16.269-12.572 16.271-12.563 16.276-12.554 16.271-12.563 16.269-12.571 16.264-12.58M15.042-14.181C15.005-14.215 14.964-14.242 14.926-14.275 14.979-14.229 15.034-14.189 15.085-14.142 15.071-14.154 15.057-14.167 15.042-14.181 15.087-14.139 15.14-14.108 15.184-14.065 15.58-13.677 15.922-13.209 16.219-12.671 16.222-12.666 16.226-12.662 16.229-12.656 16.376-12.388 16.51-12.096 16.635-11.787 16.639-11.775 16.645-11.765 16.649-11.753 17.317-10.071 17.64-7.808 17.64-4.834 17.64-2.3 17.418-.268 16.968 1.346 16.966 1.354 16.963 1.359 16.961 1.367 16.856 1.741 16.739 2.094 16.609 2.423 16.597 2.455 16.581 2.482 16.567 2.515 16.446 2.811 16.318 3.093 16.176 3.353 16.155 3.389 16.132 3.418 16.111 3.454 15.817 3.967 15.486 4.419 15.103 4.791 15.01 4.882 14.904 4.957 14.805 5.04 14.86 4.993 14.915 4.945 14.969 4.896 14.83 5.022 14.688 5.144 14.539 5.252 14.562 5.235 14.587 5.221 14.608 5.204 14.52 5.271 14.427 5.333 14.333 5.395 14.345 5.388 14.354 5.38 14.365 5.373 14.208 5.479 14.046 5.575 13.879 5.664 13.911 5.647 13.944 5.631 13.976 5.613 13.909 5.65 13.846 5.69 13.776 5.726 13.776 5.726 13.775 5.727 13.774 5.727 13.747 5.74 13.717 5.75 13.688 5.764L13.698 5.759C13.562 5.825 13.419 5.881 13.277 5.937 13.306 5.926 13.337 5.915 13.365 5.903 13.205 5.971 13.04 6.034 12.868 6.09 12.877 6.088 12.883 6.084 12.892 6.082 12.86 6.092 12.827 6.1 12.795 6.109 12.814 6.104 12.837 6.1 12.856 6.094 12.652 6.16 12.45 6.226 12.229 6.277 11.27 6.501 10.171 6.597 8.558 6.597 5.795 6.597 3.633 6.29 2.07 4.791 1.873 4.602 1.69 4.389 1.517 4.165 1.51 4.156 1.503 4.15 1.496 4.142 1.329 3.925 1.177 3.685 1.031 3.434 1.016 3.406 .996 3.383 .98 3.354 .822 3.073 .678 2.768 .545 2.444 .543 2.44 .542 2.438 .54 2.434-.177 .68-.524-1.696-.524-4.834-.524-6.687-.403-8.26-.161-9.595-.151-9.652-.138-9.701-.127-9.758-.057-10.121 .02-10.474 .108-10.801 .135-10.896 .167-10.979 .194-11.07 .275-11.342 .358-11.611 .454-11.857 .493-11.956 .539-12.04 .579-12.134 .675-12.354 .77-12.574 .878-12.772 .917-12.844 .963-12.903 1.004-12.972 1.277-13.432 1.58-13.843 1.931-14.179 3.455-15.639 5.597-15.932 8.558-15.932 9.128-15.932 9.697-15.909 10.262-15.869 10.43-15.857 10.596-15.844 10.759-15.827 10.943-15.809 11.127-15.788 11.309-15.762 11.65-15.714 11.983-15.655 12.301-15.578 12.356-15.564 12.409-15.546 12.464-15.531 12.504-15.521 12.542-15.507 12.582-15.495 12.696-15.464 12.803-15.431 12.909-15.396 13.012-15.362 13.115-15.33 13.215-15.292 13.312-15.256 13.41-15.221 13.5-15.183 13.453-15.203 13.399-15.213 13.352-15.232 13.763-15.065 14.151-14.866 14.509-14.615 14.485-14.632 14.465-14.654 14.44-14.671 14.474-14.648 14.5-14.624 14.532-14.601 14.557-14.583 14.581-14.563 14.605-14.545 14.764-14.426 14.909-14.305 15.042-14.181" fill="#6d7071"/>
<path transform="matrix(1,0,0,-1,351.5137,129.1881)" d="M0 0C.004-.002 .008-.003 .012-.004 .008-.003 .004-.002 0 0" fill="#6d7071"/>
<path transform="matrix(1,0,0,-1,352.6328,129.6686)" d="M0 0C.123-.068 .242-.143 .357-.219 .245-.143 .125-.07 0 0" fill="#6d7071"/>
<path transform="matrix(1,0,0,-1,373.6719,129.3795)" d="M0 0C.107-.045 .216-.089 .318-.139 .218-.09 .109-.045 0 0" fill="#6d7071"/>
<path transform="matrix(1,0,0,-1,374.2813,129.6705)" d="M0 0C.122-.067 .238-.14 .353-.215 .241-.141 .124-.068 0 0" fill="#6d7071"/>
<path transform="matrix(1,0,0,-1,374.9131,130.0787)" d="M0 0C.066-.051 .127-.107 .191-.161 .128-.107 .066-.052 0 0" fill="#6d7071"/>
<path transform="matrix(1,0,0,-1,373.1631,129.1891)" d="M0 0C.002-.001 .005-.002 .007-.002 .005-.002 .002-.001 0 0" fill="#6d7071"/>
<path transform="matrix(1,0,0,-1,376.5948,132.1774)" d="M0 0C-.028 .056-.053 .12-.082 .174-.053 .119-.028 .056 0 0M.458-1.103C.421-.994 .388-.877 .349-.773 .388-.877 .421-.994 .458-1.103M1.05-3.615C1.026-3.457 1.008-3.288 .981-3.137 1.008-3.289 1.026-3.457 1.05-3.615M1.206-4.89C1.197-4.791 1.192-4.682 1.183-4.585 1.192-4.683 1.197-4.79 1.206-4.89M.804-2.317C.77-2.17 .74-2.012 .702-1.872 .74-2.013 .77-2.17 .804-2.317M1.19-10.48C1.19-10.479 1.19-10.477 1.191-10.475 1.19-10.477 1.19-10.479 1.19-10.48M.999-11.859C1.013-11.782 1.021-11.694 1.034-11.615 1.021-11.694 1.013-11.781 .999-11.859M.731-13.073C.753-12.993 .769-12.902 .789-12.819 .769-12.902 .753-12.993 .731-13.073M.389-14.136C.41-14.08 .427-14.016 .448-13.959 .427-14.016 .41-14.08 .389-14.136M-.028-15.057C-.02-15.04-.013-15.021-.004-15.004-.013-15.021-.02-15.04-.028-15.057M-16.285-2.448C-16.24-2.251-16.198-2.046-16.146-1.859-16.198-2.044-16.24-2.251-16.285-2.448M-16.525-3.729C-16.495-3.528-16.47-3.318-16.436-3.127-16.47-3.316-16.495-3.528-16.525-3.729M-16.676-4.965C-16.664-4.841-16.657-4.706-16.645-4.584-16.657-4.704-16.664-4.841-16.676-4.965M-15.941-1.229C-15.89-1.074-15.841-.911-15.783-.766-15.841-.91-15.89-1.073-15.941-1.229M-13.088-17.537C-13.117-17.522-13.143-17.503-13.172-17.488-13.143-17.503-13.117-17.522-13.088-17.537M-12.355-17.845C-12.414-17.825-12.468-17.797-12.525-17.775-12.468-17.797-12.414-17.825-12.355-17.845M-11.575-18.069C-11.602-18.063-11.625-18.055-11.65-18.049-11.625-18.055-11.602-18.063-11.575-18.069M-3.995-13.137C-4.037-13.196-4.084-13.251-4.13-13.308-4.169-13.355-4.206-13.405-4.247-13.449-4.285-13.491-4.329-13.529-4.37-13.568-4.438-13.632-4.507-13.693-4.581-13.749-4.617-13.776-4.656-13.804-4.695-13.83-4.771-13.882-4.852-13.929-4.935-13.974-4.993-14.005-5.053-14.035-5.117-14.063-5.176-14.091-5.237-14.114-5.3-14.139-5.409-14.18-5.521-14.219-5.646-14.253-5.668-14.259-5.689-14.265-5.711-14.27-6.226-14.401-6.879-14.476-7.733-14.476-8.63-14.476-9.393-14.421-10.026-14.234-10.032-14.232-10.04-14.231-10.046-14.229-10.682-14.039-11.185-13.713-11.556-13.171-11.805-12.807-11.996-12.349-12.14-11.752-12.141-11.747-12.143-11.743-12.144-11.739-12.383-10.734-12.484-9.333-12.484-7.309-12.484-3.832-12.147-1.917-11.358-.903-10.567 .112-9.304 .194-7.733 .194-5.924 .194-4.805 .011-4.075-.959-3.311-1.977-2.984-3.876-2.984-7.309-2.984-10.386-3.286-12.128-3.995-13.137M-15.347 .175C-15.392 .092-15.432-.006-15.475-.094-15.431-.006-15.393 .091-15.347 .175M-15.246 .979C-15.268 .943-15.291 .914-15.312 .877-15.467 .603-15.607 .304-15.737-.012-15.742-.022-15.748-.032-15.752-.044-16.469-1.798-16.815-4.173-16.815-7.309-16.815-9.158-16.695-10.73-16.454-12.064-16.44-12.136-16.424-12.197-16.41-12.267-16.342-12.616-16.27-12.956-16.184-13.271-16.155-13.378-16.119-13.47-16.089-13.571-16.01-13.832-15.931-14.092-15.838-14.328-15.796-14.437-15.746-14.528-15.702-14.63-15.609-14.841-15.519-15.054-15.415-15.244-15.371-15.325-15.32-15.392-15.273-15.468-15.004-15.919-14.705-16.323-14.36-16.653-12.836-18.113-10.695-18.406-7.733-18.406-7.163-18.406-6.594-18.384-6.029-18.344-5.861-18.332-5.696-18.318-5.534-18.302-5.349-18.283-5.164-18.263-4.981-18.236-4.643-18.188-4.312-18.13-3.996-18.054-3.938-18.039-3.882-18.02-3.824-18.004-3.786-17.994-3.749-17.98-3.711-17.971-3.592-17.937-3.48-17.902-3.37-17.867-3.272-17.835-3.174-17.804-3.08-17.768-2.981-17.731-2.882-17.695-2.791-17.657-2.839-17.678-2.893-17.687-2.941-17.707-2.529-17.54-2.139-17.341-1.781-17.089-1.806-17.105-1.826-17.129-1.851-17.146-1.816-17.122-1.79-17.098-1.758-17.074-1.734-17.058-1.713-17.039-1.689-17.022-1.53-16.902-1.383-16.78-1.249-16.655-1.29-16.692-1.335-16.724-1.377-16.76-1.319-16.71-1.258-16.665-1.201-16.612-1.217-16.626-1.233-16.641-1.249-16.655-1.204-16.613-1.151-16.583-1.107-16.54-.505-15.948-.022-15.182 .354-14.237 .355-14.234 .356-14.232 .357-14.23 1.025-12.549 1.349-10.283 1.349-7.309 1.349-4.774 1.126-2.741 .677-1.128 .675-1.123 .674-1.119 .672-1.115 .566-.738 .449-.383 .317-.052 .305-.019 .289 .009 .276 .041 .155 .336 .026 .618-.115 .877-.138 .917-.163 .949-.187 .989-.479 1.497-.808 1.946-1.189 2.316-1.283 2.408-1.39 2.484-1.49 2.568-1.437 2.522-1.384 2.477-1.332 2.43-1.468 2.552-1.605 2.67-1.75 2.776-1.729 2.76-1.703 2.745-1.682 2.729-1.771 2.797-1.866 2.859-1.961 2.922-1.949 2.915-1.938 2.907-1.928 2.899-2.084 3.004-2.245 3.101-2.411 3.188-2.379 3.172-2.345 3.155-2.313 3.138-2.408 3.19-2.505 3.242-2.604 3.29-2.602 3.288-2.598 3.286-2.595 3.284-2.73 3.351-2.872 3.405-3.013 3.462-2.983 3.45-2.951 3.439-2.923 3.428-3.085 3.495-3.251 3.56-3.425 3.616-3.416 3.613-3.409 3.61-3.4 3.607-3.432 3.617-3.464 3.625-3.495 3.635-3.476 3.629-3.451 3.624-3.432 3.618-3.636 3.685-3.84 3.751-4.062 3.803-5.021 4.026-6.12 4.122-7.733 4.122-10.496 4.122-12.658 3.815-14.221 2.316-14.405 2.139-14.574 1.938-14.739 1.73-14.757 1.707-14.778 1.689-14.796 1.665-14.958 1.455-15.104 1.222-15.246 .979" fill="#6d7071"/>
<path transform="matrix(1,0,0,-1,392.5948,137.83261)" d="M0 0C-.009-.011-.019-.021-.028-.032-.019-.021-.009-.011 0 0" fill="#6d7071"/>
<path transform="matrix(1,0,0,-1,394.7217,129.5162)" d="M0 0C-.004 .002-.008 .005-.012 .007-.008 .005-.004 .002 0 0M2.856-7.055C2.854-7.102 2.854-7.152 2.851-7.199 2.854-7.152 2.854-7.102 2.856-7.055M2.756-7.535C2.766-7.462 2.773-7.384 2.782-7.309 2.773-7.384 2.766-7.462 2.756-7.535M2.604-8.395C2.616-8.338 2.629-8.279 2.641-8.221 2.629-8.279 2.616-8.337 2.604-8.395M2.399-9.157 2.438-9.04ZM2.143-9.838C2.154-9.812 2.166-9.788 2.177-9.763 2.166-9.788 2.154-9.812 2.143-9.838M1.826-10.454C1.839-10.434 1.852-10.415 1.863-10.394 1.852-10.415 1.839-10.434 1.826-10.454M1.442-11.007C1.461-10.983 1.48-10.963 1.499-10.939 1.48-10.963 1.461-10.983 1.442-11.007M1.062-11.428C1.042-11.448 1.019-11.463 .997-11.482 1.024-11.457 1.054-11.435 1.08-11.409 1.074-11.415 1.069-11.422 1.062-11.428M.556-11.838C.58-11.821 .605-11.807 .63-11.789 .605-11.807 .58-11.821 .556-11.838M-.38-12.336C-.369-12.332-.359-12.329-.35-12.325-.359-12.329-.369-12.332-.38-12.336M.093-12.12C.112-12.11 .132-12.103 .15-12.092 .132-12.103 .112-12.11 .093-12.12M-3.502-3.108C-3.429-3.113-3.356-3.116-3.284-3.128-3.354-3.117-3.429-3.113-3.502-3.108M-3.04-3.186C-2.978-3.203-2.915-3.222-2.854-3.245-2.914-3.222-2.977-3.203-3.04-3.186M-2.623-3.355C-2.574-3.383-2.527-3.413-2.48-3.445-2.526-3.413-2.573-3.384-2.623-3.355M-2.255-3.634C-2.222-3.666-2.189-3.701-2.158-3.737-2.189-3.702-2.222-3.667-2.255-3.634M-1.946-4.033C-1.926-4.068-1.905-4.104-1.886-4.142-1.905-4.104-1.926-4.068-1.946-4.033M-1.706-4.572C-1.694-4.607-1.683-4.641-1.671-4.678-1.682-4.641-1.694-4.607-1.706-4.572M-1.538-5.295C-1.535-5.316-1.531-5.335-1.527-5.357-1.53-5.336-1.535-5.316-1.538-5.295M-3.222-8.928C-3.275-8.937-3.335-8.937-3.392-8.942-3.336-8.937-3.274-8.937-3.222-8.928M-2.757-8.794C-2.829-8.824-2.907-8.844-2.984-8.865-2.907-8.843-2.827-8.824-2.757-8.794M-2.372-8.565C-2.43-8.612-2.495-8.647-2.559-8.686-2.494-8.647-2.43-8.611-2.372-8.565M-1.642-7.288C-1.679-7.437-1.726-7.563-1.773-7.688-1.794-7.739-1.809-7.794-1.832-7.843-1.825-7.829-1.817-7.817-1.812-7.803-1.821-7.825-1.831-7.847-1.842-7.868-1.838-7.86-1.835-7.851-1.832-7.843-1.843-7.867-1.855-7.889-1.867-7.912-1.884-7.945-1.903-7.972-1.921-8.003-1.982-8.113-2.047-8.222-2.127-8.316-2.104-8.29-2.08-8.268-2.06-8.239-2.096-8.289-2.138-8.33-2.177-8.374-2.17-8.365-2.162-8.357-2.155-8.349-2.376-8.597-2.666-8.784-3.048-8.882-3.053-8.883-3.059-8.885-3.063-8.886-3.259-8.935-3.477-8.962-3.721-8.962H-8.779V-2.467H-3.721C-3.542-2.467-3.374-2.483-3.217-2.514-3.199-2.517-3.183-2.522-3.165-2.525-3.031-2.555-2.906-2.595-2.789-2.646-2.759-2.659-2.73-2.674-2.701-2.688-2.601-2.738-2.508-2.798-2.421-2.865-2.385-2.893-2.35-2.922-2.315-2.952-2.241-3.02-2.174-3.095-2.109-3.176-2.071-3.224-2.035-3.274-2-3.328-1.946-3.411-1.896-3.499-1.852-3.594-1.817-3.664-1.786-3.741-1.757-3.821-1.718-3.922-1.682-4.026-1.651-4.139-1.627-4.229-1.608-4.331-1.589-4.43-1.564-4.558-1.537-4.684-1.521-4.824-1.51-4.919-1.507-5.03-1.5-5.133-1.489-5.283-1.475-5.429-1.473-5.593-1.473-5.682-1.478-5.769-1.479-5.856-1.483-6.033-1.489-6.206-1.502-6.364-1.508-6.447-1.517-6.529-1.525-6.611-1.548-6.806-1.577-6.986-1.612-7.151-1.622-7.193-1.629-7.237-1.639-7.279-1.635-7.264-1.63-7.251-1.626-7.235-1.63-7.252-1.636-7.266-1.64-7.282-1.64-7.281-1.64-7.28-1.639-7.279ZM-8.779-12.135C-8.532-12.208-4.581-12.682-3.382-12.74-3.222-12.746-3.057-12.75-2.889-12.75-1.888-12.75-.759-12.619 .237-12.049 .248-12.043 .26-12.035 .271-12.028 .419-11.941 .563-11.846 .705-11.738 .731-11.719 .756-11.695 .782-11.675 .879-11.597 .978-11.523 1.069-11.435 1.097-11.409 1.12-11.377 1.146-11.35 1.183-11.312 1.218-11.27 1.254-11.23 1.359-11.116 1.463-10.997 1.56-10.868 1.595-10.82 1.627-10.767 1.661-10.717 1.752-10.584 1.84-10.449 1.921-10.303 1.957-10.237 1.99-10.164 2.025-10.095 2.098-9.949 2.168-9.801 2.231-9.643 2.265-9.562 2.295-9.474 2.325-9.388 2.385-9.222 2.44-9.051 2.49-8.873 2.516-8.784 2.539-8.692 2.562-8.599 2.611-8.395 2.655-8.184 2.693-7.964 2.708-7.883 2.723-7.803 2.735-7.719 2.778-7.436 2.812-7.141 2.836-6.835 2.839-6.801 2.843-6.77 2.845-6.736 2.873-6.361 2.891-5.974 2.891-5.564 2.891-4.851 2.837-4.195 2.738-3.591 2.727-3.516 2.71-3.448 2.696-3.376 2.657-3.171 2.617-2.968 2.566-2.775 2.539-2.673 2.507-2.578 2.477-2.479 2.431-2.33 2.385-2.181 2.331-2.04 2.291-1.935 2.246-1.839 2.202-1.74 2.147-1.617 2.095-1.494 2.033-1.379 1.985-1.287 1.932-1.205 1.88-1.119 1.813-1.009 1.747-.896 1.674-.794 1.626-.726 1.572-.667 1.521-.604 1.437-.495 1.352-.386 1.258-.288 1.237-.266 1.214-.248 1.192-.227 1.072-.105 .952 .015 .82 .12 .794 .141 .762 .153 .735 .174 .536 .326 .326 .456 .11 .571 .047 .605-.015 .642-.08 .674-.338 .798-.605 .896-.877 .979-.938 .997-1 1.016-1.062 1.033-1.37 1.115-1.682 1.175-1.995 1.217-2.059 1.225-2.123 1.234-2.188 1.241-2.549 1.281-2.907 1.3-3.259 1.303-3.302 1.303-3.338 1.31-3.382 1.31H-13.113V-20.946H-8.779Z" fill="#6d7071"/>
<path transform="matrix(1,0,0,-1,401.5869,132.3912)" d="M0 0C-.004-.022-.007-.046-.011-.068-.007-.046-.004-.022 0 0M1.123 2.323C1.125 2.325 1.127 2.326 1.129 2.328 1.125 2.324 1.122 2.32 1.118 2.316 1.12 2.318 1.121 2.321 1.123 2.323M4.28-13.094C4.281-13.099 4.283-13.104 4.284-13.108 4.283-13.104 4.281-13.099 4.28-13.094M4.449-13.551C4.435-13.525 4.417-13.506 4.403-13.479 4.416-13.505 4.435-13.525 4.449-13.551M4.67-13.822C4.646-13.802 4.62-13.787 4.599-13.765 4.619-13.787 4.647-13.802 4.67-13.822M1.115-17.004C1.114-17.003 1.113-17.001 1.111-16.999 1.133-17.02 1.154-17.036 1.176-17.056 1.156-17.038 1.134-17.021 1.115-17.004M.578-16.342C.589-16.359 .6-16.377 .611-16.395 .6-16.377 .589-16.359 .578-16.342M-.012-14.666C-.007-14.697-.002-14.728 .004-14.758-.002-14.728-.007-14.697-.012-14.666M-.029-14.557C-.016-14.664 .002-14.768 .021-14.871 .062-15.085 .112-15.287 .175-15.476 .194-15.538 .211-15.603 .234-15.663 .317-15.884 .42-16.082 .53-16.268 .569-16.332 .609-16.396 .651-16.459 .778-16.643 .916-16.812 1.066-16.959 1.082-16.975 1.093-16.995 1.108-17.011 1.178-17.076 1.254-17.131 1.328-17.189 1.355-17.212 1.383-17.235 1.41-17.257 1.505-17.328 1.603-17.392 1.703-17.453 1.738-17.475 1.773-17.497 1.81-17.518 1.907-17.572 2.006-17.622 2.106-17.669 2.149-17.688 2.191-17.708 2.235-17.727 2.334-17.769 2.433-17.807 2.534-17.842 2.58-17.857 2.627-17.872 2.673-17.887 2.776-17.919 2.88-17.949 2.984-17.975 3.024-17.984 3.064-17.993 3.104-18.003 3.22-18.028 3.335-18.052 3.45-18.071 3.47-18.074 3.489-18.076 3.509-18.079 3.919-18.144 4.326-18.171 4.704-18.171 4.851-18.171 4.993-18.169 5.13-18.162 5.209-18.159 13.022-17.885 14.764-17.646H14.768V-14.142H6.101 6.052C5.621-14.142 5.181-14.135 4.84-13.945 4.74-13.891 4.654-13.82 4.579-13.737 4.572-13.729 4.567-13.719 4.561-13.711 4.495-13.632 4.437-13.544 4.392-13.44 4.385-13.427 4.382-13.407 4.376-13.393 4.287-13.171 4.24-12.898 4.24-12.565V-9.105L13.374-8.832H13.379V-5.298L4.24-4.993V-1.534C4.24-.7 4.24 .163 5.84 .163H14.768V3.697L14.764 3.698C12.811 3.969 4.9 4.183 4.82 4.185 4.782 4.186 4.744 4.186 4.705 4.186 4.236 4.186 3.698 4.14 3.155 4.014H3.154C3.016 3.981 2.878 3.943 2.739 3.899 2.738 3.899 2.736 3.898 2.735 3.898 2.226 3.735 1.729 3.483 1.296 3.112 1.265 3.085 1.232 3.061 1.202 3.033 1.174 3.008 1.144 2.987 1.116 2.961 1.088 2.934 1.069 2.897 1.042 2.869 .89 2.71 .745 2.539 .617 2.342 .587 2.294 .562 2.241 .533 2.191 .436 2.023 .348 1.841 .271 1.646 .246 1.58 .217 1.519 .193 1.452 .118 1.23 .061 .987 .015 .73-.003 .634-.017 .533-.03 .432-.058 .213-.075-.019-.08-.263-.082-.323-.094-.377-.094-.439V-13.689C-.094-13.761-.08-13.82-.078-13.89-.072-14.124-.057-14.347-.029-14.557" fill="#6d7071"/>
<path transform="matrix(1,0,0,-1,432.32234,129.2164)" d="M0 0C-.008 .002-.014 .005-.021 .008-.014 .005-.008 .002 0 0M-1.617-8.775C-1.631-8.784-1.647-8.788-1.661-8.796-1.647-8.788-1.631-8.784-1.617-8.775M-1.306-8.502C-1.311-8.51-1.318-8.513-1.324-8.52-1.318-8.513-1.311-8.51-1.306-8.502M-2-2.93C-1.74-3.033-1.528-3.188-1.355-3.4-.951-3.898-.754-4.725-.754-5.925-.754-8.582-1.47-9.049-2.974-9.049H-8.094V-2.767H-2.974C-2.598-2.767-2.281-2.817-2.016-2.921-2.01-2.924-2.005-2.927-2-2.93M-8.124-12.403-4.337-12.824-.601-21.243-.599-21.246H4.291L-.002-12.491 .036-12.48C.683-12.278 1.567-12.003 2.302-11.094 2.381-10.995 2.453-10.886 2.525-10.776 2.532-10.766 2.539-10.756 2.547-10.745 2.619-10.634 2.686-10.514 2.751-10.391 2.771-10.354 2.791-10.318 2.81-10.28 2.869-10.161 2.924-10.034 2.977-9.905 2.998-9.853 3.02-9.802 3.04-9.746 3.091-9.612 3.137-9.472 3.18-9.328 3.198-9.269 3.217-9.21 3.233-9.148 3.278-8.986 3.317-8.817 3.354-8.644 3.365-8.591 3.377-8.54 3.388-8.486 3.429-8.27 3.464-8.047 3.493-7.814 3.496-7.794 3.5-7.774 3.502-7.753 3.571-7.191 3.609-6.585 3.609-5.925 3.609-4.961 3.519-4.097 3.343-3.332 3.328-3.269 3.309-3.211 3.293-3.149 3.248-2.972 3.202-2.794 3.146-2.628 3.121-2.549 3.09-2.479 3.062-2.403 3.009-2.26 2.956-2.116 2.896-1.982 2.868-1.923 2.837-1.87 2.809-1.812 2.738-1.671 2.668-1.528 2.588-1.397 2.581-1.387 2.573-1.377 2.566-1.366 2.358-1.028 2.122-.724 1.852-.461 1.827-.437 1.795-.422 1.771-.399 1.567-.211 1.349-.047 1.118 .1 1.06 .137 1.006 .179 .946 .213 .691 .359 .418 .478 .135 .58 .059 .608-.015 .64-.094 .665-.397 .762-.719 .831-1.049 .885-1.127 .897-1.2 .914-1.28 .925-1.655 .975-2.048 .997-2.45 1.002-2.493 1.002-2.528 1.01-2.571 1.01H-12.457V-21.246H-8.124Z" fill="#6d7071"/>
<path transform="matrix(1,0,0,-1,451.8213,141.7604)" d="M0 0H-5.235L-2.525 7.941ZM2.628-8.702H7.238L-.112 13.551-.113 13.554H-5.029L-12.657-8.695-12.659-8.702H-8.018L-6.381-3.778H1.021L2.627-8.699Z" fill="#6d7071"/>
<path transform="matrix(1,0,0,-1,464.7002,150.4625)" d="M0 0H4.332V18.325H10.6V22.256H-6.114V18.325H0Z" fill="#6d7071"/>
<path transform="matrix(1,0,0,-1,-85,258)" d="M568.237 129.793H563.905V107.537H568.237Z" fill="#6d7071"/>
<path transform="matrix(1,0,0,-1,501.71479,129.6705)" d="M0 0C.121-.067 .238-.14 .353-.215 .24-.141 .123-.068 0 0" fill="#6d7071"/>
<path transform="matrix(1,0,0,-1,500.5957,129.1891)" d="M0 0C.002-.001 .005-.002 .007-.002 .005-.002 .002-.001 0 0" fill="#6d7071"/>
<path transform="matrix(1,0,0,-1,504.01863,132.1568)" d="M0 0C-.025 .048-.046 .104-.071 .15-.046 .104-.025 .048 0 0M.459-1.1C.425-1.001 .396-.892 .358-.797 .396-.893 .425-1.001 .459-1.1M1.054-3.595C1.032-3.453 1.015-3.299 .991-3.163 1.016-3.3 1.032-3.452 1.054-3.595M1.21-4.842C1.203-4.768 1.199-4.685 1.192-4.612 1.199-4.686 1.203-4.768 1.21-4.842M.807-2.309C.774-2.173 .747-2.026 .713-1.896 .747-2.027 .774-2.173 .807-2.309M1.009-11.875C1.02-11.815 1.026-11.747 1.036-11.687 1.026-11.747 1.02-11.814 1.009-11.875M.741-13.091C.76-13.021 .773-12.942 .791-12.871 .773-12.942 .76-13.021 .741-13.091M.399-14.153C.417-14.106 .432-14.051 .449-14.003 .432-14.052 .417-14.105 .399-14.153M-.019-15.075C-.014-15.065-.009-15.055-.004-15.045-.009-15.055-.013-15.065-.019-15.075M-16.28-2.486C-16.233-2.281-16.19-2.069-16.137-1.877-16.19-2.068-16.233-2.281-16.28-2.486M-16.52-3.772C-16.488-3.563-16.462-3.344-16.426-3.144-16.462-3.342-16.488-3.563-16.52-3.772M-16.669-5.024C-16.656-4.886-16.649-4.735-16.635-4.601-16.649-4.734-16.656-4.886-16.669-5.024M-15.938-1.263C-15.883-1.103-15.833-.935-15.773-.783-15.833-.934-15.883-1.103-15.938-1.263M-15.337 .156C-15.385 .068-15.426-.034-15.472-.127-15.426-.034-15.385 .067-15.337 .156M-13.078-17.558C-13.109-17.542-13.138-17.521-13.169-17.505-13.138-17.521-13.109-17.542-13.078-17.558M-12.346-17.866C-12.406-17.845-12.462-17.816-12.521-17.794-12.462-17.816-12.406-17.845-12.346-17.866M-11.566-18.09C-11.594-18.084-11.618-18.074-11.646-18.068-11.618-18.074-11.593-18.084-11.566-18.09M-3.985-13.157C-4.023-13.211-4.066-13.261-4.107-13.313-4.151-13.366-4.193-13.423-4.24-13.473-4.276-13.512-4.318-13.549-4.358-13.586-4.427-13.651-4.498-13.714-4.572-13.771-4.608-13.798-4.646-13.824-4.685-13.85-4.762-13.901-4.843-13.949-4.926-13.994-4.984-14.025-5.044-14.056-5.108-14.084-5.167-14.111-5.229-14.135-5.29-14.159-5.399-14.2-5.513-14.239-5.638-14.273-5.659-14.279-5.68-14.285-5.701-14.29-6.217-14.422-6.87-14.496-7.725-14.496-8.62-14.496-9.382-14.441-10.015-14.256-10.022-14.254-10.03-14.252-10.037-14.25-10.673-14.06-11.176-13.733-11.546-13.191-11.794-12.829-11.985-12.374-12.128-11.783-12.13-11.774-12.133-11.767-12.135-11.758-12.374-10.754-12.476-9.353-12.476-7.329-12.476-3.853-12.138-1.937-11.35-.924-10.559 .092-9.294 .174-7.725 .174-5.914 .174-4.795-.01-4.066-.979-3.301-1.997-2.975-3.896-2.975-7.329-2.975-10.405-3.276-12.148-3.985-13.157M-14.823 .959C-14.825 .957-14.827 .954-14.828 .951-14.827 .954-14.825 .957-14.823 .959M-15.246 .945C-15.264 .915-15.284 .89-15.302 .858-15.459 .579-15.603 .276-15.734-.045-15.737-.051-15.74-.057-15.742-.062-16.459-1.816-16.807-4.192-16.807-7.329-16.807-9.181-16.686-10.754-16.444-12.088-16.433-12.15-16.418-12.203-16.406-12.265-16.337-12.623-16.262-12.972-16.174-13.295-16.146-13.394-16.113-13.479-16.085-13.574-16.005-13.843-15.923-14.108-15.828-14.352-15.788-14.453-15.741-14.539-15.699-14.636-15.605-14.854-15.512-15.071-15.405-15.267-15.363-15.342-15.316-15.403-15.273-15.476-15.001-15.932-14.7-16.34-14.352-16.674-12.827-18.134-10.687-18.427-7.725-18.427-7.154-18.427-6.585-18.404-6.021-18.364-5.853-18.353-5.687-18.339-5.524-18.322-5.339-18.304-5.155-18.283-4.973-18.257-4.633-18.209-4.302-18.15-3.985-18.074-3.928-18.06-3.873-18.04-3.816-18.025-3.777-18.015-3.74-18.002-3.701-17.99-3.584-17.959-3.475-17.924-3.366-17.89-3.267-17.856-3.166-17.825-3.069-17.788-2.972-17.752-2.872-17.716-2.782-17.678-2.83-17.698-2.883-17.708-2.932-17.728-2.52-17.561-2.13-17.361-1.772-17.11-1.797-17.127-1.817-17.149-1.841-17.166-1.809-17.143-1.781-17.119-1.749-17.096-1.725-17.078-1.702-17.059-1.678-17.041-1.52-16.922-1.374-16.8-1.24-16.676-1.278-16.711-1.321-16.74-1.36-16.773-1.306-16.727-1.248-16.685-1.195-16.635-1.21-16.648-1.226-16.662-1.24-16.676-1.194-16.634-1.143-16.604-1.099-16.561-.701-16.17-.358-15.702-.061-15.162-.059-15.158-.056-15.155-.054-15.152 .095-14.882 .229-14.588 .354-14.278 .358-14.268 .363-14.259 .367-14.248 1.034-12.567 1.357-10.303 1.357-7.329 1.357-4.797 1.136-2.765 .687-1.152 .683-1.138 .678-1.126 .674-1.112 .57-.746 .456-.398 .328-.075 .312-.034 .293 0 .276 .04 .157 .326 .033 .603-.105 .854-.132 .902-.163 .942-.19 .99-.324 1.221-.462 1.445-.614 1.646-.617 1.65-.621 1.654-.624 1.658-.798 1.888-.981 2.104-1.181 2.296-1.274 2.388-1.381 2.464-1.481 2.548-1.43 2.504-1.379 2.46-1.329 2.414-1.463 2.534-1.598 2.65-1.739 2.754-1.718 2.738-1.694 2.724-1.673 2.708-1.763 2.776-1.857 2.839-1.951 2.901-1.941 2.895-1.932 2.888-1.921 2.881-2.076 2.984-2.235 3.08-2.399 3.167-2.368 3.15-2.335 3.134-2.304 3.117-2.371 3.154-2.436 3.195-2.505 3.23-2.507 3.231-2.509 3.231-2.51 3.232-2.537 3.246-2.568 3.256-2.596 3.27-2.593 3.268-2.59 3.267-2.587 3.265-2.721 3.33-2.861 3.385-3.001 3.44-2.973 3.429-2.941 3.419-2.913 3.407-3.076 3.475-3.242 3.539-3.416 3.596-3.407 3.593-3.401 3.59-3.393 3.587-3.422 3.597-3.454 3.604-3.483 3.613-3.465 3.607-3.441 3.604-3.423 3.598-3.627 3.664-3.831 3.73-4.053 3.782-5.013 4.006-6.111 4.102-7.725 4.102-10.487 4.102-12.649 3.795-14.212 2.296-14.405 2.11-14.582 1.901-14.754 1.684-14.764 1.67-14.776 1.659-14.786 1.646-14.951 1.431-15.102 1.193-15.246 .945" fill="#6d7071"/>
<path transform="matrix(1,0,0,-1,501.10554,129.3795)" d="M0 0C.106-.045 .215-.089 .317-.139 .217-.09 .108-.045 0 0" fill="#6d7071"/>
<path transform="matrix(1,0,0,-1,502.3457,130.0787)" d="M0 0C.066-.051 .127-.107 .191-.161 .128-.107 .066-.052 0 0" fill="#6d7071"/>
<path transform="matrix(1,0,0,-1,513.7139,136.2516)" d="M0 0 8.979-14.211H13.308V8.045H8.975V-6.318L.026 8.045H-4.362V-14.211H0Z" fill="#6d7071"/>
<path transform="matrix(1,0,0,-1,-85,258)" d="M227.645 71.182H231.987V93.535H227.645Z" fill="#6d7071"/>
<path transform="matrix(1,0,0,-1,164.5547,178.8893)" d="M0 0-8.971 14.424H-13.37V-7.929H-8.997V6.344L.005-7.929H4.343V14.424H0Z" fill="#6d7071"/>
<path transform="matrix(1,0,0,-1,192.40921,186.43219)" d="M0 0H.001ZM-8.534 8.658C-8.592 8.668-8.651 8.674-8.708 8.685-8.652 8.674-8.591 8.668-8.534 8.658M-9.442 8.867C-9.39 8.851-9.333 8.838-9.278 8.822-9.333 8.838-9.39 8.851-9.442 8.867M-10.099 9.117C-10.055 9.098-10.006 9.079-9.96 9.06-10.007 9.079-10.054 9.097-10.099 9.117M-10.68 9.433C-10.646 9.41-10.607 9.391-10.571 9.369-10.607 9.391-10.645 9.41-10.68 9.433M-11.188 9.811C-11.165 9.791-11.14 9.772-11.116 9.753-11.14 9.772-11.165 9.79-11.188 9.811M-11.624 10.245C-11.622 10.243-11.62 10.241-11.618 10.238-11.62 10.241-11.622 10.243-11.624 10.245M-11.886 20.085C-11.897 20.068-11.906 20.05-11.918 20.034-11.906 20.051-11.897 20.068-11.886 20.085M-6.904 18.162C-6.865 18.167-6.828 18.173-6.788 18.177-6.828 18.173-6.865 18.167-6.904 18.162M-7.446 18.043C-7.396 18.06-7.346 18.079-7.29 18.093-7.346 18.079-7.395 18.06-7.446 18.043M-7.873 17.832C-7.825 17.865-7.78 17.903-7.728 17.932-7.78 17.903-7.825 17.865-7.873 17.832M-8.131 17.606C-8.116 17.623-8.104 17.643-8.09 17.659-8.104 17.643-8.116 17.623-8.131 17.606M-8.362 17.211C-8.351 17.239-8.34 17.267-8.328 17.293-8.34 17.267-8.351 17.239-8.362 17.211M-8.499 16.708C-8.495 16.729-8.49 16.747-8.487 16.768-8.49 16.748-8.495 16.729-8.499 16.708M-1.143 12.669C-1.168 12.675-1.195 12.677-1.221 12.682-1.195 12.677-1.168 12.675-1.143 12.669M-12.501 18.873C-12.476 18.944-12.455 19.019-12.427 19.088-12.454 19.02-12.476 18.944-12.501 18.873M-12.663 18.318C-12.649 18.376-12.64 18.437-12.624 18.493-12.64 18.437-12.649 18.376-12.663 18.318M-12.263 19.445C-12.234 19.502-12.21 19.562-12.18 19.616-12.21 19.562-12.234 19.502-12.263 19.445M-.51 12.503C-.548 12.516-.59 12.525-.629 12.537-.59 12.525-.549 12.516-.51 12.503M.062 12.275C.025 12.293-.016 12.308-.054 12.325-.016 12.308 .025 12.293 .062 12.275M.575 11.988C.546 12.007 .515 12.023 .484 12.042 .515 12.023 .546 12.007 .575 11.988M1.03 11.646C1.017 11.658 1.001 11.669 .987 11.681 1.001 11.669 1.017 11.658 1.03 11.646M1.142 11.551C1.128 11.563 1.116 11.576 1.103 11.589 .983 11.697 .856 11.795 .725 11.889 .702 11.905 .681 11.923 .657 11.939 .521 12.032 .378 12.116 .229 12.194 .204 12.208 .18 12.223 .153 12.236-.004 12.315-.169 12.385-.34 12.447-.364 12.456-.388 12.467-.412 12.476-.603 12.542-.801 12.598-1.007 12.645-1.019 12.647-1.029 12.65-1.041 12.653-1.504 12.754-2.002 12.81-2.543 12.81H-6.134C-6.703 12.81-7.157 12.853-7.518 12.973-7.556 12.985-7.6 12.993-7.635 13.007-7.733 13.048-7.818 13.101-7.9 13.157-7.921 13.171-7.946 13.181-7.966 13.195-8.357 13.501-8.542 14.033-8.542 14.943V16.041C-8.542 16.144-8.532 16.229-8.527 16.322-8.521 16.427-8.518 16.537-8.505 16.631-8.492 16.726-8.472 16.808-8.452 16.892-8.432 16.979-8.41 17.062-8.383 17.138-8.356 17.21-8.328 17.28-8.295 17.344-8.262 17.409-8.224 17.467-8.184 17.522-8.144 17.578-8.105 17.637-8.058 17.685-8.032 17.711-7.999 17.729-7.971 17.754-7.884 17.828-7.792 17.896-7.687 17.947-7.65 17.965-7.609 17.978-7.571 17.993-7.461 18.038-7.347 18.078-7.22 18.105-7.178 18.115-7.133 18.121-7.09 18.129-6.95 18.153-6.806 18.174-6.65 18.186-6.62 18.187-6.588 18.188-6.557 18.19-6.374 18.201-6.185 18.207-5.982 18.207-5.851 18.207-5.715 18.205-5.577 18.203-4.477 18.203 .002 18.083 2.007 17.899L2.012 17.898V21.265L2.008 21.266C.121 21.811-3.015 22.101-5.507 22.146H-5.53C-5.75 22.15-5.974 22.155-6.183 22.155-6.378 22.155-6.569 22.154-6.753 22.151-6.811 22.149-6.858 22.141-6.916 22.14-7.293 22.128-7.661 22.104-8.016 22.062-8.104 22.05-8.186 22.034-8.271 22.021-8.59 21.974-8.9 21.914-9.195 21.834-9.275 21.812-9.351 21.784-9.43 21.76-9.705 21.674-9.973 21.576-10.223 21.456-10.285 21.426-10.342 21.39-10.401 21.358-10.625 21.239-10.838 21.106-11.036 20.955-11.062 20.935-11.095 20.922-11.12 20.901-12.309 19.948-12.886 18.468-12.886 16.376V14.454C-12.886 13.463-12.795 11.999-12.014 10.759-11.94 10.642-11.854 10.536-11.771 10.428-11.738 10.386-11.711 10.342-11.677 10.301-11.591 10.197-11.495 10.103-11.399 10.008-11.352 9.96-11.307 9.911-11.256 9.864-11.154 9.772-11.044 9.688-10.933 9.606-10.876 9.564-10.822 9.521-10.764 9.481-10.641 9.4-10.511 9.326-10.378 9.255-10.317 9.223-10.26 9.188-10.195 9.158-10.047 9.086-9.89 9.022-9.729 8.963-9.669 8.941-9.611 8.917-9.549 8.896-9.361 8.834-9.163 8.782-8.96 8.735-8.912 8.725-8.868 8.711-8.818 8.701-8.274 8.589-7.682 8.527-7.031 8.527H-3.564C-1.874 8.527-1.527 7.687-1.527 6.427V5.236C-1.527 5.07-1.548 4.921-1.575 4.776-1.58 4.753-1.578 4.724-1.584 4.701-1.611 4.581-1.66 4.478-1.708 4.374-1.727 4.335-1.738 4.288-1.759 4.251-1.826 4.136-1.91 4.033-2.007 3.939-2.018 3.929-2.025 3.915-2.036 3.904-2.148 3.802-2.279 3.713-2.43 3.638-2.996 3.354-3.731 3.316-4.308 3.316-7.245 3.316-11.006 3.536-12.198 3.653L-12.204 3.654V.287L-12.2 .286C-9.896-.372-7.438-.629-3.44-.629-3.386-.629-3.341-.621-3.286-.621-2.935-.617-2.582-.602-2.233-.566-2.15-.558-2.07-.546-1.989-.536-1.682-.497-1.379-.445-1.084-.373-1.006-.354-.932-.332-.856-.311-.587-.235-.324-.146-.072-.036-.004-.006 .06 .029 .125 .062 .342 .169 .552 .288 .75 .428 .777 .447 .811 .459 .837 .479 1.097 .67 1.323 .896 1.532 1.14 1.573 1.187 1.617 1.231 1.656 1.282 1.73 1.376 1.795 1.479 1.861 1.579 1.908 1.65 1.957 1.718 2.001 1.793 2.061 1.896 2.112 2.006 2.165 2.115 2.205 2.198 2.248 2.278 2.285 2.367 2.338 2.492 2.382 2.626 2.427 2.759 2.454 2.84 2.484 2.917 2.509 3.001 2.56 3.178 2.601 3.364 2.64 3.554 2.649 3.603 2.662 3.648 2.671 3.699 2.766 4.218 2.816 4.778 2.816 5.389V6.884C2.816 7.971 2.642 9.527 1.81 10.774 1.615 11.066 1.389 11.321 1.142 11.551" fill="#6d7071"/>
<path transform="matrix(1,0,0,-1,201.44339,185.8805)" d="M0 0C-.059 .038-.122 .07-.18 .111-.123 .07-.059 .038 0 0M-.811 .627C-.807 .623-.802 .62-.798 .616-.802 .62-.807 .623-.811 .627M.757-.42C.682-.385 .601-.356 .526-.318 .6-.356 .682-.385 .757-.42M1.477-.706C1.424-.688 1.366-.677 1.313-.658 1.365-.677 1.424-.688 1.477-.706M4.109 21.66C3.351 21.66 2.655 21.593 2.019 21.462 1.967 21.451 1.921 21.435 1.87 21.423 1.619 21.366 1.371 21.305 1.139 21.227 1.015 21.186 .903 21.132 .784 21.084 .635 21.024 .48 20.969 .34 20.899 .211 20.836 .095 20.759-.025 20.687-.146 20.617-.271 20.553-.384 20.475-.479 20.408-.563 20.331-.653 20.26-.78 20.159-.912 20.062-1.03 19.951-1.062 19.921-1.089 19.885-1.12 19.854-1.473 19.505-1.79 19.111-2.06 18.658-2.34 18.186-2.578 17.646-2.78 17.04-2.787 17.02-2.793 16.996-2.8 16.976-2.887 16.708-2.969 16.429-3.041 16.134-3.059 16.062-3.073 15.985-3.09 15.912-3.146 15.662-3.202 15.408-3.249 15.139-3.267 15.042-3.279 14.939-3.295 14.841-3.336 14.581-3.376 14.318-3.409 14.04-3.418 13.961-3.425 13.877-3.433 13.796-3.544 12.758-3.604 11.604-3.604 10.3-3.604 6.546-3.045 3.816-1.896 1.957-.636-.084 1.328-1.091 4.109-1.12 4.403-1.126 4.692-1.129 4.977-1.129 5.068-1.129 5.148-1.122 5.24-1.122 5.731-1.118 6.203-1.104 6.663-1.085 6.884-1.075 7.104-1.063 7.316-1.05 7.768-1.021 8.204-.983 8.623-.936 8.809-.915 8.988-.891 9.167-.866 9.588-.809 9.997-.745 10.385-.668 10.523-.641 10.654-.607 10.788-.578 11.138-.5 11.475-.414 11.797-.318 11.862-.299 11.938-.285 12.003-.266L12.006-.265V3.071H12.001C11.965 3.069 8.343 2.827 5.13 2.827 3.388 2.827 2.267 3.408 1.603 4.655 1.006 5.776 .739 7.498 .739 10.238 .739 13.614 1.039 15.492 1.741 16.517 2.426 17.517 3.503 17.712 5.13 17.712 7.529 17.712 10.402 17.45 11.902 17.294 11.974 17.287 11.998 17.284 12.001 17.284H12.006V20.651L12.002 20.652C9.508 21.368 7.221 21.66 4.109 21.66" fill="#6d7071"/>
<path transform="matrix(1,0,0,-1,-85,258)" d="M302.152 71.182H306.496V93.535H302.152Z" fill="#6d7071"/>
<path transform="matrix(1,0,0,-1,229.8858,182.2691)" d="M0 0C-.013 .021-.028 .039-.04 .062-.028 .039-.013 .021 0 0M.216-.272C.196-.255 .174-.243 .155-.225 .174-.243 .196-.255 .216-.272M-3.335-3.478-3.341-3.472C-3.314-3.497-3.286-3.519-3.259-3.543-3.283-3.521-3.313-3.499-3.335-3.478M-3.876-2.81C-3.864-2.829-3.853-2.849-3.84-2.867-3.853-2.849-3.864-2.829-3.876-2.81M-4.467-1.126C-4.461-1.159-4.456-1.191-4.45-1.225-4.456-1.191-4.461-1.159-4.467-1.126M-4.454 14.236C-4.458 14.213-4.461 14.188-4.465 14.165-4.461 14.188-4.458 14.213-4.454 14.236M-3.325 16.571C-3.323 16.574-3.319 16.576-3.316 16.579-3.322 16.573-3.328 16.567-3.333 16.562-3.33 16.564-3.328 16.568-3.325 16.571M.378 17.804C.339 17.805 .3 17.805 .26 17.805-.209 17.805-.747 17.759-1.29 17.633L-1.293 17.632C-1.432 17.6-1.569 17.562-1.707 17.519-1.71 17.518-1.712 17.517-1.715 17.516-2.224 17.353-2.718 17.101-3.151 16.73-3.185 16.702-3.218 16.677-3.25 16.647-3.276 16.623-3.306 16.604-3.332 16.578-3.36 16.551-3.379 16.515-3.405 16.487-3.56 16.326-3.706 16.154-3.834 15.955-3.865 15.908-3.89 15.854-3.918 15.805-4.017 15.637-4.104 15.454-4.181 15.259-4.207 15.192-4.237 15.129-4.26 15.06-4.335 14.838-4.394 14.595-4.439 14.338-4.457 14.239-4.472 14.137-4.484 14.033-4.512 13.815-4.529 13.585-4.535 13.343-4.536 13.279-4.548 13.224-4.548 13.159V-.148C-4.548-.222-4.535-.285-4.533-.357-4.526-.588-4.511-.81-4.484-1.017-4.47-1.126-4.452-1.232-4.432-1.338-4.392-1.549-4.342-1.747-4.282-1.933-4.259-2.003-4.239-2.076-4.213-2.144-4.131-2.359-4.032-2.553-3.925-2.733-3.884-2.802-3.843-2.868-3.799-2.933-3.673-3.116-3.536-3.284-3.387-3.432-3.37-3.447-3.359-3.469-3.342-3.484-3.271-3.551-3.194-3.606-3.119-3.666-3.093-3.688-3.067-3.71-3.041-3.73-2.946-3.802-2.848-3.866-2.747-3.928-2.711-3.949-2.675-3.973-2.639-3.993-2.543-4.048-2.445-4.097-2.346-4.143-2.301-4.164-2.256-4.185-2.21-4.204-2.113-4.245-2.016-4.283-1.916-4.317-1.867-4.334-1.818-4.35-1.77-4.365-1.668-4.396-1.567-4.426-1.466-4.451-1.421-4.462-1.377-4.472-1.333-4.481-1.222-4.507-1.111-4.529-1-4.548-.976-4.552-.951-4.555-.927-4.559-.517-4.622-.11-4.65 .266-4.65 .411-4.65 .553-4.646 .688-4.641 .767-4.638 8.601-4.362 10.346-4.121L10.35-4.12V-.601H1.659C1.211-.601 .751-.602 .396-.404 .296-.349 .21-.278 .136-.195 .128-.187 .123-.176 .116-.168 .051-.089-.007-.001-.052 .102-.06 .119-.064 .143-.071 .161-.157 .383-.205 .651-.205 .98V4.455L8.951 4.729H8.956V8.281L-.205 8.586V12.062C-.205 12.898-.205 13.765 1.399 13.765H10.35V17.315L10.346 17.316C8.388 17.587 .458 17.802 .378 17.804" fill="#6d7071"/>
<path transform="matrix(1,0,0,-1,256.6534,178.8893)" d="M0 0-8.971 14.424H-13.37V-7.929H-8.996V6.344L.005-7.929H4.343V14.424H0Z" fill="#6d7071"/>
<path transform="matrix(1,0,0,-1,269.0537,186.5846)" d="M0 0C-.05 .017-.105 .028-.155 .046-.105 .028-.05 .017 0 0M-1.49 .717C-1.542 .751-1.598 .778-1.647 .813-1.598 .778-1.541 .751-1.49 .717M-.725 .29C-.796 .323-.872 .35-.941 .385-.872 .35-.796 .323-.725 .29M2.64 22.364C1.881 22.364 1.187 22.297 .549 22.166 .5 22.155 .457 22.14 .409 22.129 .154 22.072-.096 22.01-.331 21.931-.454 21.89-.564 21.836-.683 21.789-.833 21.729-.988 21.674-1.13 21.604-1.26 21.539-1.376 21.462-1.498 21.39-1.617 21.32-1.74 21.256-1.853 21.179-1.952 21.11-2.039 21.029-2.133 20.955-2.256 20.857-2.384 20.765-2.498 20.656-2.538 20.618-2.572 20.573-2.611 20.533-2.955 20.189-3.265 19.806-3.528 19.362-3.808 18.892-4.045 18.354-4.247 17.752-4.261 17.712-4.271 17.669-4.284 17.629-4.364 17.379-4.44 17.121-4.508 16.847-4.53 16.757-4.548 16.66-4.569 16.568-4.621 16.337-4.673 16.103-4.717 15.854-4.737 15.735-4.754 15.61-4.772 15.489-4.81 15.251-4.847 15.013-4.876 14.76-4.889 14.65-4.898 14.534-4.91 14.422-4.938 14.14-4.967 13.854-4.988 13.554-4.99 13.526-4.991 13.497-4.993 13.469-5.044 12.707-5.072 11.892-5.072 11.004-5.072 7.25-4.514 4.521-3.365 2.661-2.104 .62-.141-.387 2.64-.416 2.935-.422 3.224-.425 3.508-.425 3.6-.425 3.68-.418 3.771-.418 4.262-.414 4.733-.4 5.193-.381 5.414-.371 5.634-.359 5.847-.346 6.298-.316 6.734-.279 7.154-.231 7.339-.211 7.519-.187 7.697-.162 8.118-.105 8.527-.041 8.915 .036 9.055 .063 9.186 .097 9.32 .127 9.667 .204 10.002 .289 10.321 .384 10.389 .404 10.467 .418 10.533 .438L10.536 .439V3.775H10.531C10.496 3.773 6.873 3.531 3.661 3.531 1.918 3.531 .797 4.112 .133 5.359-.464 6.48-.73 8.202-.73 10.942-.73 14.318-.431 16.196 .271 17.221 .956 18.221 2.032 18.416 3.661 18.416 6.06 18.416 8.934 18.154 10.434 17.998 10.505 17.991 10.528 17.988 10.531 17.988H10.536V21.355L10.532 21.356C8.038 22.072 5.751 22.364 2.64 22.364" fill="#6d7071"/>
<path transform="matrix(1,0,0,-1,286.836,181.82089)" d="M0 0ZM.165-.451C.152-.429 .136-.41 .124-.385 .136-.41 .152-.429 .165-.451M.381-.722C.36-.704 .338-.691 .319-.673 .338-.691 .361-.704 .381-.722M-3.171-3.926C-3.173-3.924-3.174-3.921-3.177-3.919-3.146-3.947-3.116-3.972-3.086-3.999-3.113-3.975-3.146-3.95-3.171-3.926M-3.712-3.257C-3.7-3.276-3.688-3.297-3.675-3.316-3.688-3.297-3.7-3.276-3.712-3.257M-4.302-1.571C-4.297-1.606-4.29-1.641-4.285-1.676-4.291-1.641-4.297-1.606-4.302-1.571M-4.289 13.791C-4.293 13.766-4.297 13.739-4.301 13.713-4.297 13.739-4.293 13.765-4.289 13.791M-3.161 16.123C-3.158 16.126-3.154 16.128-3.151 16.131L-3.169 16.113C-3.166 16.116-3.164 16.12-3.161 16.123M.543 17.355C.504 17.356 .465 17.356 .425 17.356-.044 17.356-.583 17.31-1.126 17.185-1.127 17.184-1.128 17.184-1.129 17.184-1.267 17.151-1.404 17.114-1.542 17.07-1.545 17.069-1.549 17.067-1.552 17.066-2.06 16.903-2.554 16.652-2.986 16.282-3.02 16.254-3.053 16.229-3.085 16.199-3.112 16.175-3.142 16.155-3.168 16.13-3.195 16.103-3.214 16.066-3.241 16.039-3.396 15.878-3.541 15.706-3.669 15.508-3.7 15.459-3.725 15.405-3.754 15.355-3.852 15.188-3.938 15.007-4.015 14.813-4.042 14.745-4.072 14.681-4.096 14.61-4.17 14.389-4.228 14.147-4.274 13.893-4.292 13.791-4.307 13.688-4.32 13.582-4.347 13.367-4.363 13.142-4.369 12.903-4.371 12.837-4.384 12.779-4.384 12.711V-.597C-4.384-.674-4.369-.74-4.367-.816-4.36-1.042-4.346-1.259-4.319-1.462-4.305-1.574-4.286-1.682-4.267-1.789-4.227-1.997-4.178-2.192-4.119-2.375-4.095-2.45-4.073-2.526-4.046-2.598-3.964-2.811-3.867-3.001-3.761-3.181-3.72-3.249-3.678-3.316-3.633-3.382-3.507-3.564-3.371-3.731-3.223-3.879-3.205-3.896-3.194-3.917-3.178-3.933-3.106-4-3.028-4.057-2.952-4.116-2.927-4.137-2.902-4.158-2.877-4.178-2.781-4.25-2.682-4.315-2.58-4.377-2.545-4.398-2.511-4.421-2.475-4.441-2.378-4.496-2.28-4.546-2.18-4.592-2.136-4.612-2.091-4.633-2.046-4.652-1.948-4.693-1.851-4.731-1.751-4.766-1.702-4.782-1.654-4.798-1.605-4.813-1.504-4.845-1.403-4.874-1.3-4.899-1.257-4.91-1.213-4.92-1.17-4.93-1.058-4.955-.946-4.978-.835-4.996-.811-5-.787-5.003-.764-5.007-.354-5.07 .053-5.099 .43-5.099 .575-5.099 .716-5.095 .852-5.089 .931-5.086 8.766-4.811 10.51-4.569L10.514-4.568V-1.049H1.824 1.773C1.342-1.049 .901-1.042 .56-.853 .46-.797 .373-.727 .299-.644 .292-.636 .287-.625 .281-.618 .215-.538 .156-.449 .111-.346 .104-.331 .101-.311 .095-.294 .006-.071-.041 .2-.041 .532V4.007L9.116 4.281H9.121V7.833L-.041 8.138V11.613C-.041 12.45-.041 13.316 1.564 13.316H10.514V16.867L10.51 16.868C8.552 17.139 .623 17.354 .543 17.355" fill="#6d7071"/>
<path transform="matrix(1,0,0,-1,319.544,186.2106)" d="M0 0C.009 .005 .017 .01 .025 .015 .017 .01 .009 .005 0 0M-.983-.419C-.952-.408-.92-.397-.889-.387-.92-.397-.951-.408-.983-.419M-2.027-.665C-2.004-.662-1.98-.659-1.958-.655-1.98-.659-2.004-.662-2.027-.665M-3.973-.695C-3.99-.693-4.008-.688-4.025-.686-3.998-.689-3.97-.693-3.942-.697-3.952-.696-3.962-.696-3.973-.695M-4.71-.561C-4.672-.569-4.634-.578-4.597-.587-4.635-.578-4.672-.569-4.71-.561M-5.359-.371C-5.318-.385-5.277-.399-5.235-.413-5.277-.399-5.318-.385-5.359-.371M-5.972-.121C-5.933-.14-5.894-.158-5.854-.176-5.894-.158-5.933-.14-5.972-.121M-6.544 .187C-6.511 .166-6.478 .145-6.443 .125-6.478 .145-6.511 .166-6.544 .187M-7.08 .553C-7.052 .531-7.024 .508-6.995 .486-7.024 .508-7.052 .531-7.08 .553M-7.571 .974C-7.549 .951-7.527 .928-7.505 .906-7.527 .928-7.549 .951-7.571 .974M-6.765 15.299C-6.769 15.305-6.773 15.311-6.776 15.316-6.773 15.311-6.769 15.305-6.765 15.299M-7.002 15.754C-7.022 15.797-7.046 15.841-7.065 15.885-7.046 15.841-7.022 15.797-7.002 15.754M-7.27 16.456C-7.255 16.404-7.236 16.353-7.219 16.301-7.236 16.353-7.255 16.404-7.27 16.456M-7.391 17.029C-7.382 16.972-7.371 16.913-7.36 16.854-7.371 16.913-7.382 16.971-7.391 17.029M-7.429 17.595C-7.43 17.533-7.427 17.472-7.424 17.411-7.427 17.472-7.43 17.533-7.429 17.595M-7.39 18.141C-7.397 18.085-7.404 18.027-7.409 17.971-7.404 18.027-7.398 18.084-7.39 18.141M-7.279 18.666C-7.291 18.623-7.302 18.579-7.312 18.535-7.302 18.579-7.291 18.623-7.279 18.666M-7.111 19.15C-7.106 19.161-7.101 19.171-7.096 19.182-7.107 19.153-7.118 19.124-7.13 19.096-7.123 19.114-7.119 19.132-7.111 19.15M-6.855 19.653C-6.867 19.633-6.878 19.612-6.89 19.591-6.878 19.612-6.867 19.633-6.855 19.653M-6.56 20.091C-6.568 20.079-6.576 20.068-6.585 20.057-6.576 20.068-6.568 20.079-6.56 20.091M-6.214 20.49C-6.219 20.485-6.223 20.48-6.228 20.476-6.223 20.48-6.219 20.485-6.214 20.49M-5.824 20.845C-5.826 20.844-5.827 20.842-5.829 20.841-5.827 20.842-5.826 20.844-5.824 20.845M-1.946 17.748C-1.916 17.76-1.896 17.776-1.863 17.787-1.896 17.776-1.916 17.76-1.946 17.748M-2.337 17.498C-2.313 17.523-2.297 17.553-2.268 17.576-2.297 17.553-2.313 17.523-2.337 17.498M-2.526 17.119C-2.517 17.173-2.514 17.23-2.493 17.278-2.514 17.23-2.516 17.173-2.526 17.119M-2.514 16.694C-2.525 16.749-2.546 16.81-2.551 16.86-2.546 16.81-2.524 16.749-2.514 16.694M-2.362 16.226C-2.377 16.259-2.4 16.298-2.413 16.33-2.4 16.298-2.377 16.259-2.362 16.226M-1.608 3.518C-1.627 3.507-1.646 3.498-1.664 3.487-1.646 3.498-1.627 3.507-1.608 3.518M-2.104 3.297C-2.123 3.291-2.142 3.284-2.16 3.279-2.142 3.284-2.123 3.291-2.104 3.297M-3.024 3.243C-3.094 3.254-3.163 3.265-3.231 3.282-3.162 3.265-3.094 3.254-3.024 3.243M-3.518 3.376C-3.591 3.405-3.662 3.437-3.733 3.472-3.662 3.437-3.59 3.404-3.518 3.376M-4.002 3.619C-4.068 3.661-4.13 3.708-4.193 3.754-4.13 3.708-4.067 3.66-4.002 3.619M-4.449 3.957C-4.508 4.01-4.558 4.068-4.612 4.124-4.558 4.068-4.507 4.009-4.449 3.957M-5.217 6.985C-5.207 7.005-5.202 7.022-5.191 7.042-5.202 7.023-5.207 7.004-5.217 6.985M-1.554 3.561C-1.619 3.518-1.687 3.482-1.755 3.448-1.84 3.404-1.927 3.367-2.013 3.336-2.081 3.312-2.149 3.287-2.22 3.27-2.304 3.25-2.387 3.241-2.471 3.232-2.543 3.225-2.614 3.21-2.688 3.21H-2.693C-2.766 3.21-2.837 3.224-2.908 3.231-3.041 3.245-3.175 3.269-3.308 3.308-3.345 3.318-3.382 3.331-3.419 3.344-3.559 3.392-3.696 3.452-3.832 3.525-3.861 3.542-3.892 3.558-3.922 3.575-4.065 3.66-4.205 3.758-4.338 3.868-4.354 3.883-4.373 3.895-4.39 3.909-4.54 4.04-4.683 4.185-4.812 4.346-5.05 4.64-5.223 4.927-5.335 5.209-5.346 5.236-5.351 5.266-5.36 5.293-5.401 5.41-5.439 5.526-5.46 5.642-5.462 5.656-5.461 5.672-5.463 5.687-5.482 5.813-5.494 5.94-5.488 6.066-5.458 6.746-5.054 7.418-4.286 8.062L-2.682 9.463 .439 5.381-1.136 3.888C-1.178 3.848-1.222 3.818-1.265 3.782-1.36 3.7-1.456 3.623-1.554 3.561M.419 21.799C.439 21.797 .46 21.796 .48 21.794 .46 21.796 .439 21.797 .419 21.799M7.043 6.323 8.9 9.591 8.902 9.595 7.383 11.396 7.379 11.4 3.636 7.922-1.594 14.968C-2.006 15.529-2.279 15.993-2.427 16.379-2.444 16.424-2.448 16.462-2.462 16.505-2.505 16.643-2.54 16.775-2.548 16.891-2.551 16.94-2.538 16.981-2.534 17.028-2.527 17.124-2.517 17.218-2.48 17.297-2.458 17.346-2.42 17.385-2.388 17.428-2.344 17.484-2.306 17.543-2.243 17.59-2.208 17.616-2.155 17.635-2.114 17.658-2.025 17.709-1.938 17.76-1.821 17.797-1.815 17.798-1.808 17.799-1.802 17.801-1.474 17.9-1.036 17.95-.482 17.95H4.599V21.072L4.595 21.073C2.426 21.579-.273 22.21-3.981 21.684-4.596 21.6-5.196 21.327-5.723 20.93-5.729 20.925-5.735 20.921-5.741 20.916-5.86 20.825-5.974 20.726-6.084 20.622-6.101 20.606-6.118 20.592-6.135 20.575-6.238 20.476-6.334 20.369-6.428 20.26-6.447 20.235-6.469 20.213-6.489 20.188-6.578 20.078-6.661 19.963-6.74 19.844-6.758 19.816-6.777 19.79-6.795 19.762-6.872 19.64-6.941 19.514-7.006 19.384-7.02 19.355-7.035 19.327-7.049 19.299-7.071 19.25-7.1 19.204-7.121 19.153-7.156 19.071-7.179 18.986-7.208 18.903-7.222 18.865-7.235 18.829-7.247 18.791-7.292 18.649-7.328 18.506-7.357 18.362-7.363 18.332-7.37 18.302-7.375 18.271-7.402 18.117-7.42 17.962-7.429 17.807-7.43 17.779-7.432 17.752-7.433 17.725-7.438 17.563-7.434 17.403-7.42 17.242-7.417 17.212-7.415 17.183-7.411 17.151-7.394 16.989-7.365 16.828-7.328 16.666-7.32 16.633-7.313 16.599-7.305 16.565-7.262 16.397-7.207 16.23-7.143 16.064-7.131 16.035-7.122 16.007-7.11 15.978-6.943 15.57-6.721 15.169-6.429 14.779L-4.854 12.523-6.984 10.665C-8.326 9.513-9.222 8.053-9.506 6.557-9.812 4.943-9.422 3.333-8.378 1.897-8.102 1.498-7.78 1.144-7.425 .827-7.393 .798-7.357 .772-7.324 .743-7.186 .625-7.042 .512-6.893 .406-6.847 .374-6.8 .345-6.753 .313-6.611 .22-6.467 .13-6.316 .048-6.268 .021-6.219-.004-6.17-.028-6.019-.106-5.863-.18-5.705-.245-5.657-.265-5.609-.283-5.562-.302-5.401-.363-5.238-.42-5.071-.47-5.023-.483-4.975-.497-4.927-.51-4.763-.555-4.597-.594-4.428-.626-4.374-.636-4.32-.645-4.267-.654-4.169-.67-4.073-.692-3.974-.705-3.917-.712-3.862-.71-3.806-.715-3.669-.729-3.532-.735-3.396-.74-3.296-.744-3.195-.759-3.096-.759-3.056-.759-3.019-.75-2.979-.75-2.707-.745-2.44-.722-2.178-.687-2.07-.673-1.965-.66-1.859-.642-1.594-.594-1.336-.53-1.086-.454-.981-.422-.881-.387-.779-.35-.531-.26-.291-.158-.067-.04 .006-.002 .071 .042 .142 .083 .356 .21 .559 .348 .741 .5 .766 .52 .797 .534 .82 .555L2.828 2.319 5.025-.607H10.112L5.9 4.983Z" fill="#6d7071"/>
<path transform="matrix(1,0,0,-1,335.7373,168.4117)" d="M0 0H6.128V-18.406H10.471V0H16.754V3.946H0Z" fill="#6d7071"/>
<path transform="matrix(1,0,0,-1,359.1563,182.2682)" d="M0 0C-.013 .021-.027 .038-.038 .062-.027 .039-.012 .021 0 0M.214-.271C.195-.255 .175-.244 .157-.226 .174-.243 .196-.255 .214-.271M-3.331-3.479C-3.332-3.479-3.332-3.478-3.333-3.477-3.325-3.484-3.317-3.49-3.31-3.497-3.316-3.491-3.325-3.485-3.331-3.479M-3.87-2.816C-3.86-2.832-3.851-2.849-3.841-2.863ZM-4.463-1.132C-4.458-1.162-4.453-1.19-4.448-1.22-4.453-1.19-4.458-1.162-4.463-1.132M-4.452 14.231C-4.456 14.211-4.459 14.19-4.462 14.169-4.459 14.19-4.456 14.211-4.452 14.231M-3.322 16.57C-3.321 16.572-3.319 16.573-3.317 16.574L-3.327 16.564C-3.325 16.566-3.324 16.568-3.322 16.57M.381 17.803C.342 17.804 .303 17.804 .263 17.804-.205 17.804-.742 17.758-1.284 17.632-1.288 17.631-1.292 17.631-1.296 17.63-1.432 17.598-1.565 17.562-1.701 17.519-1.708 17.516-1.715 17.514-1.723 17.511-2.223 17.35-2.708 17.103-3.137 16.74-3.174 16.708-3.214 16.678-3.25 16.644-3.276 16.62-3.305 16.602-3.329 16.577-3.356 16.551-3.374 16.517-3.399 16.49-3.556 16.328-3.704 16.153-3.833 15.952-3.862 15.907-3.885 15.857-3.912 15.811-4.013 15.639-4.102 15.452-4.181 15.252-4.206 15.188-4.234 15.128-4.257 15.062-4.332 14.838-4.391 14.593-4.437 14.333-4.455 14.236-4.469 14.138-4.481 14.038-4.51 13.813-4.527 13.576-4.533 13.325-4.534 13.268-4.545 13.218-4.545 13.158V-.149C-4.545-.217-4.533-.274-4.531-.341-4.525-.58-4.509-.808-4.48-1.022-4.467-1.129-4.449-1.232-4.431-1.334-4.39-1.551-4.339-1.754-4.276-1.944-4.256-2.008-4.238-2.073-4.216-2.135-4.132-2.355-4.03-2.553-3.92-2.737-3.881-2.804-3.841-2.869-3.798-2.932-3.671-3.116-3.533-3.285-3.382-3.434-3.366-3.449-3.355-3.47-3.339-3.485-3.271-3.55-3.195-3.604-3.123-3.662-3.094-3.686-3.065-3.711-3.036-3.733-2.943-3.803-2.847-3.866-2.749-3.926-2.711-3.949-2.673-3.974-2.634-3.996-2.539-4.049-2.443-4.098-2.346-4.143-2.299-4.165-2.253-4.186-2.206-4.206-2.109-4.246-2.013-4.284-1.915-4.317-1.865-4.335-1.816-4.351-1.767-4.366-1.666-4.397-1.565-4.427-1.463-4.452-1.42-4.463-1.376-4.473-1.331-4.482-1.22-4.508-1.108-4.53-.997-4.549-.974-4.553-.95-4.556-.927-4.56-.517-4.623-.11-4.651 .267-4.651 .412-4.651 .554-4.647 .689-4.642 .768-4.639 8.604-4.363 10.348-4.122L10.352-4.121V-.602H1.661 1.61C1.18-.602 .738-.595 .396-.405 .297-.35 .211-.28 .137-.196 .129-.187 .123-.176 .116-.166 .051-.088-.007-.001-.051 .101-.059 .118-.063 .143-.07 .161-.157 .383-.204 .651-.204 .979V4.454L8.953 4.729H8.958V8.28L-.204 8.585V12.061C-.204 12.897-.204 13.764 1.401 13.764H10.352V17.314L10.348 17.315C8.389 17.586 .461 17.801 .381 17.803" fill="#6d7071"/>
<path transform="matrix(1,0,0,-1,375.5938,185.89511)" d="M0 0C-.067 .044-.141 .08-.206 .127-.141 .08-.067 .044 0 0M-.837 .644C-.822 .629-.805 .618-.79 .604-.805 .618-.821 .629-.837 .644M.752-.413C.669-.375 .581-.344 .501-.303 .581-.344 .669-.375 .752-.413M1.469-.695C1.409-.677 1.346-.663 1.288-.643 1.346-.663 1.41-.677 1.469-.695M4.085 21.675C3.326 21.675 2.631 21.607 1.994 21.477 1.945 21.466 1.902 21.45 1.854 21.439 1.6 21.383 1.35 21.32 1.114 21.241 .991 21.2 .882 21.147 .765 21.101 .613 21.04 .458 20.984 .315 20.914 .187 20.851 .071 20.773-.05 20.702-.17 20.632-.295 20.567-.408 20.489-.505 20.422-.591 20.343-.683 20.27-.808 20.17-.937 20.076-1.053 19.966-1.091 19.93-1.123 19.888-1.16 19.851-1.506 19.505-1.817 19.119-2.083 18.673-2.362 18.203-2.6 17.665-2.801 17.062-2.814 17.021-2.826 16.977-2.839 16.936-2.919 16.687-2.995 16.43-3.063 16.157-3.085 16.067-3.103 15.972-3.123 15.88-3.176 15.647-3.228 15.413-3.271 15.164-3.292 15.047-3.308 14.924-3.326 14.805-3.363 14.565-3.4 14.324-3.431 14.069-3.443 13.962-3.452 13.85-3.463 13.741-3.493 13.455-3.521 13.166-3.543 12.86-3.544 12.842-3.545 12.821-3.546 12.803-3.598 12.033-3.627 11.211-3.627 10.314-3.627 6.561-3.068 3.831-1.92 1.972-.659-.069 1.305-1.076 4.085-1.105 4.379-1.111 4.669-1.114 4.951-1.114 5.044-1.114 5.124-1.107 5.215-1.107 5.707-1.104 6.18-1.09 6.641-1.07 6.86-1.061 7.078-1.049 7.291-1.035 7.743-1.006 8.181-.969 8.601-.921 8.785-.9 8.964-.876 9.142-.852 9.563-.795 9.973-.73 10.361-.653 10.5-.626 10.63-.594 10.764-.563 11.114-.485 11.452-.399 11.775-.303 11.84-.284 11.915-.271 11.979-.251L11.982-.25V3.086H11.978C11.941 3.084 8.319 2.842 5.106 2.842 3.363 2.842 2.242 3.423 1.578 4.67 .982 5.79 .717 7.512 .717 10.253 .717 13.629 1.016 15.507 1.718 16.531 2.402 17.531 3.479 17.727 5.106 17.727 7.502 17.727 10.376 17.465 11.876 17.309 11.949 17.302 11.975 17.299 11.978 17.299H11.982V20.666L11.979 20.667C9.482 21.383 7.195 21.675 4.085 21.675" fill="#6d7071"/>
<path transform="matrix(1,0,0,-1,402.6328,174.0484)" d="M0 0H-7.758V9.583H-12.101V-12.77H-7.758V-3.917H0V-12.77H4.345V9.583H0Z" fill="#6d7071"/>
<path transform="matrix(1,0,0,-1,423.8897,178.8893)" d="M0 0-8.972 14.424H-13.371V-7.929H-8.998V6.344L.005-7.929H4.342V14.424H0Z" fill="#6d7071"/>
<path transform="matrix(1,0,0,-1,446.63569,165.7125)" d="M0 0C.066-.05 .128-.106 .192-.16 .129-.106 .066-.052 0 0" fill="#6d7071"/>
<path transform="matrix(1,0,0,-1,448.29493,183.5719)" d="M0 0C.003 .006 .006 .013 .009 .018 .006 .013 .003 .006 0 0M-3.488 18.772C-3.452 18.762-3.413 18.752-3.378 18.74-3.414 18.752-3.452 18.761-3.488 18.772M-11.579-3.029C-11.597-3.024-11.613-3.019-11.631-3.015-11.613-3.019-11.597-3.024-11.579-3.029M-13.094-2.494C-13.117-2.482-13.138-2.467-13.16-2.455-13.138-2.467-13.117-2.482-13.094-2.494M-12.361-2.804C-12.412-2.785-12.458-2.762-12.508-2.743-12.458-2.762-12.411-2.785-12.361-2.804M-12.216 18.67C-12.214 18.671-12.211 18.672-12.209 18.673-12.211 18.672-12.214 18.671-12.216 18.67M-4.229 1.612C-4.27 1.568-4.315 1.528-4.358 1.486-4.425 1.425-4.491 1.365-4.562 1.312-4.601 1.282-4.642 1.254-4.683 1.226-4.758 1.175-4.837 1.129-4.918 1.085-4.978 1.053-5.039 1.021-5.104 .992-5.163 .965-5.224 .941-5.285 .918-5.395 .877-5.508 .837-5.633 .803-5.655 .797-5.677 .791-5.699 .785-6.216 .653-6.87 .579-7.727 .579-8.4 .579-8.999 .61-9.524 .704-9.529 .705-9.535 .705-9.54 .706-9.7 .735-9.853 .772-9.999 .815-10.015 .819-10.031 .822-10.047 .827-10.682 1.019-11.185 1.346-11.556 1.89-12.226 2.873-12.487 4.523-12.487 7.777-12.487 11.27-12.15 13.193-11.358 14.211-10.566 15.23-9.301 15.312-7.727 15.312-5.911 15.312-4.789 15.127-4.06 14.154-3.293 13.133-2.966 11.226-2.966 7.777-2.966 4.687-3.269 2.938-3.979 1.925-4.022 1.861-4.072 1.803-4.121 1.743-4.157 1.699-4.191 1.653-4.229 1.612M.035 15.733C.004 15.796-.023 15.868-.056 15.929-.023 15.867 .004 15.797 .035 15.733M.489 14.635C.45 14.747 .417 14.869 .375 14.977 .417 14.869 .45 14.747 .489 14.635M1.08 12.119C1.057 12.277 1.037 12.448 1.011 12.601 1.037 12.447 1.057 12.278 1.08 12.119M1.236 10.831C1.228 10.934 1.223 11.047 1.212 11.146 1.223 11.046 1.228 10.934 1.236 10.831M.834 13.421C.799 13.57 .769 13.73 .73 13.872 .77 13.729 .799 13.57 .834 13.421M1.028 3.21C1.041 3.28 1.049 3.361 1.062 3.434 1.049 3.361 1.041 3.281 1.028 3.21M.761 1.991C.78 2.063 .795 2.147 .813 2.223 .795 2.147 .78 2.064 .761 1.991M.418 .925C.436 .972 .45 1.025 .468 1.072 .45 1.025 .437 .972 .418 .925M1.379 7.777C1.379 10.323 1.156 12.366 .705 13.986 .704 13.989 .703 13.991 .703 13.993 .597 14.375 .478 14.733 .345 15.068 .334 15.097 .32 15.12 .31 15.147 .187 15.449 .056 15.737-.09 16.001-.107 16.033-.129 16.061-.147 16.093-.443 16.612-.777 17.069-1.165 17.446-1.26 17.538-1.366 17.615-1.467 17.699-1.406 17.647-1.346 17.595-1.287 17.541-1.431 17.673-1.578 17.798-1.731 17.91-1.708 17.893-1.682 17.877-1.659 17.859-1.75 17.929-1.845 17.992-1.94 18.056-1.927 18.046-1.914 18.037-1.9 18.027-2.061 18.135-2.225 18.233-2.394 18.323-2.358 18.305-2.322 18.287-2.288 18.269-2.387 18.323-2.486 18.376-2.59 18.427-2.583 18.423-2.577 18.42-2.571 18.416-2.71 18.484-2.855 18.541-3 18.599-2.965 18.585-2.928 18.572-2.894 18.559-3.252 18.708-3.628 18.842-4.045 18.939-5.008 19.164-6.108 19.26-7.727 19.26-10.496 19.26-12.663 18.951-14.229 17.446-14.637 17.056-14.988 16.583-15.297 16.043-15.304 16.029-15.313 16.02-15.319 16.006-16.343 14.191-16.831 11.521-16.831 7.777-16.831 5.917-16.71 4.337-16.467 2.996-16.456 2.938-16.442 2.887-16.431 2.829-16.361 2.465-16.285 2.113-16.196 1.786-16.169 1.687-16.136 1.601-16.107 1.505-16.026 1.236-15.944 .969-15.85 .726-15.809 .621-15.761 .532-15.718 .433-15.624 .217-15.531 0-15.426-.193-15.384-.27-15.335-.333-15.292-.405-15.02-.863-14.718-1.272-14.369-1.608-12.841-3.073-10.694-3.367-7.727-3.367-7.154-3.367-6.582-3.345-6.016-3.305-5.85-3.293-5.686-3.279-5.524-3.264-5.337-3.244-5.151-3.224-4.968-3.197-4.637-3.15-4.314-3.093-4.005-3.019-3.939-3.003-3.876-2.982-3.812-2.965-3.771-2.954-3.731-2.94-3.691-2.929-3.574-2.897-3.466-2.863-3.358-2.828-3.258-2.795-3.156-2.764-3.059-2.727-2.963-2.69-2.864-2.655-2.775-2.617-2.823-2.639-2.877-2.648-2.926-2.668-2.512-2.5-2.12-2.299-1.76-2.046-1.782-2.062-1.802-2.082-1.824-2.098-1.793-2.076-1.768-2.054-1.738-2.032-1.711-2.013-1.686-1.991-1.658-1.971-1.504-1.854-1.362-1.736-1.231-1.614-1.27-1.649-1.311-1.678-1.35-1.711-1.296-1.664-1.24-1.623-1.187-1.574-1.202-1.588-1.217-1.602-1.231-1.614-1.184-1.571-1.13-1.539-1.083-1.493-.48-.9 .003-.133 .379 .812 .381 .817 .384 .822 .386 .827 1.055 2.516 1.379 4.791 1.379 7.777" fill="#6d7071"/>
<path transform="matrix(1,0,0,-1,445.40144,165.0133)" d="M0 0C.103-.043 .206-.085 .304-.132 .207-.086 .104-.043 0 0" fill="#6d7071"/>
<path transform="matrix(1,0,0,-1,446.00679,165.3033)" d="M0 0C.119-.067 .235-.139 .348-.213 .237-.14 .121-.068 0 0" fill="#6d7071"/>
<path transform="matrix(1,0,0,-1,457.2578,181.8199)" d="M0 0C.001-.002 .002-.004 .002-.007 .002-.004 .001-.002 0 0M.168-.455C.153-.431 .137-.412 .124-.386 .137-.411 .154-.431 .168-.455M.384-.725C.363-.706 .339-.693 .319-.673 .339-.693 .363-.706 .384-.725M1.772-1.05C1.342-1.05 .902-1.043 .56-.854 .46-.798 .374-.728 .299-.644 .293-.638 .289-.628 .283-.621 .216-.541 .157-.451 .111-.346 .105-.333 .103-.314 .097-.301 .007-.077-.041 .196-.041 .531V17.354H-4.384V-.658C-4.384-.698-4.375-.731-4.374-.771-4.369-1.08-4.345-1.365-4.304-1.634-4.295-1.69-4.29-1.751-4.28-1.807-4.226-2.101-4.146-2.365-4.05-2.611-4.032-2.655-4.019-2.701-4.001-2.744-3.893-2.994-3.762-3.216-3.614-3.418-3.591-3.45-3.57-3.486-3.546-3.518-3.381-3.728-3.194-3.908-2.991-4.067-2.975-4.08-2.964-4.099-2.946-4.111-2.921-4.131-2.889-4.144-2.862-4.162-2.716-4.266-2.563-4.356-2.401-4.438-2.35-4.465-2.301-4.493-2.247-4.518-2.059-4.604-1.859-4.673-1.655-4.733-1.592-4.752-1.529-4.772-1.464-4.79-1.25-4.845-1.027-4.885-.802-4.916-.727-4.927-.653-4.938-.576-4.947-.333-4.973-.085-4.984 .165-4.989 .221-4.99 .269-4.998 .325-4.998H9.646V-1.05H1.823Z" fill="#6d7071"/>
<path transform="matrix(1,0,0,-1,469.4502,169.10611)" d="M0 0C.059 .177 .114 .36 .18 .526 .114 .361 .059 .177 0 0M-.339-1.228C-.29-1.007-.243-.779-.186-.572-.242-.777-.289-1.006-.339-1.228M-.576-2.521C-.544-2.294-.515-2.06-.476-1.845-.515-2.058-.543-2.295-.576-2.521M-.725-3.794C-.711-3.634-.702-3.463-.686-3.309-.702-3.462-.711-3.635-.725-3.794M.457 1.133C.512 1.244 .561 1.364 .619 1.47 .562 1.365 .512 1.244 .457 1.133M1.134 2.276C1.115 2.251 1.099 2.22 1.08 2.194 1.099 2.22 1.115 2.251 1.134 2.276M12.482 4.307C12.52 4.296 12.559 4.286 12.595 4.274 12.559 4.286 12.52 4.295 12.482 4.307M4.393-17.495C4.375-17.49 4.358-17.484 4.341-17.48 4.358-17.484 4.375-17.49 4.393-17.495M2.878-16.96C2.854-16.948 2.835-16.933 2.812-16.921 2.835-16.933 2.854-16.948 2.878-16.96M3.611-17.27C3.56-17.251 3.514-17.227 3.463-17.208 3.514-17.227 3.561-17.251 3.611-17.27M3.759 4.205C3.76 4.205 3.762 4.206 3.763 4.207 3.762 4.206 3.76 4.205 3.759 4.205M11.741-12.855C11.703-12.897 11.659-12.937 11.617-12.977 11.55-13.039 11.48-13.101 11.407-13.156 11.371-13.185 11.331-13.211 11.292-13.238 11.215-13.29 11.135-13.338 11.053-13.382 10.994-13.414 10.934-13.444 10.87-13.473 10.811-13.5 10.748-13.524 10.685-13.549 10.577-13.59 10.465-13.629 10.341-13.662 10.318-13.669 10.295-13.675 10.271-13.681 9.756-13.813 9.102-13.887 8.246-13.887 7.571-13.887 6.972-13.855 6.446-13.762 6.441-13.761 6.437-13.76 6.433-13.76 6.271-13.73 6.12-13.693 5.974-13.651 5.958-13.646 5.94-13.644 5.926-13.639 5.29-13.447 4.787-13.12 4.416-12.576 4.165-12.208 3.972-11.745 3.827-11.141V-11.139C3.586-10.13 3.484-8.723 3.484-6.688 3.484-3.196 3.821-1.272 4.613-.255 5.404 .765 6.672 .846 8.246 .846 10.061 .846 11.183 .661 11.913-.312 12.68-1.333 13.007-3.24 13.007-6.688 13.007-9.778 12.704-11.528 11.994-12.541 11.952-12.601 11.905-12.656 11.859-12.713 11.82-12.761 11.783-12.811 11.741-12.855M15.992 1.301C15.966 1.352 15.944 1.41 15.918 1.459 15.944 1.409 15.966 1.352 15.992 1.301M16.448 .207C16.415 .305 16.385 .412 16.35 .506 16.386 .411 16.414 .305 16.448 .207M17.042-2.278C17.021-2.146 17.007-2.002 16.983-1.874 17.007-2.003 17.021-2.146 17.042-2.278M17.2-3.521C17.194-3.459 17.191-3.39 17.185-3.329 17.191-3.391 17.194-3.459 17.2-3.521M16.795-.997C16.765-.866 16.738-.725 16.704-.601 16.738-.726 16.764-.866 16.795-.997M17.002-11.249C17.01-11.204 17.015-11.153 17.022-11.108 17.015-11.153 17.01-11.204 17.002-11.249M16.734-12.47C16.749-12.414 16.761-12.35 16.774-12.292 16.76-12.35 16.749-12.413 16.734-12.47M16.392-13.538C16.405-13.502 16.416-13.459 16.43-13.423 16.416-13.459 16.405-13.501 16.392-13.538M15.973-14.465C15.974-14.463 15.975-14.462 15.975-14.46 15.975-14.462 15.974-14.463 15.973-14.465M16.332-13.694C16.341-13.673 16.351-13.655 16.359-13.634 16.487-13.311 16.602-12.964 16.705-12.596 16.705-12.593 16.707-12.59 16.707-12.587 17.139-11.037 17.351-9.096 17.351-6.688 17.351-4.146 17.128-2.104 16.678-.484 16.674-.47 16.669-.457 16.664-.441 16.561-.074 16.446 .274 16.318 .599 16.304 .637 16.285 .668 16.271 .705 16.15 .996 16.024 1.276 15.884 1.533 15.86 1.574 15.834 1.607 15.812 1.648 15.518 2.158 15.188 2.609 14.807 2.98 14.712 3.072 14.604 3.149 14.503 3.234 14.562 3.185 14.619 3.135 14.676 3.083 14.535 3.211 14.392 3.333 14.241 3.443 14.265 3.426 14.291 3.411 14.313 3.394 14.223 3.463 14.126 3.526 14.03 3.591 14.044 3.581 14.057 3.572 14.07 3.563 13.911 3.67 13.747 3.769 13.578 3.858 13.613 3.839 13.651 3.821 13.686 3.802 13.586 3.857 13.485 3.911 13.381 3.961 13.388 3.958 13.395 3.954 13.401 3.95 13.262 4.019 13.116 4.075 12.971 4.133 13.007 4.119 13.045 4.106 13.08 4.092 12.722 4.242 12.345 4.376 11.928 4.474 10.965 4.698 9.863 4.794 8.246 4.794 5.476 4.794 3.31 4.485 1.742 2.98 1.331 2.585 .977 2.108 .665 1.561 .661 1.555 .657 1.549 .653 1.542-.37-.272-.859-2.943-.859-6.688-.859-8.549-.737-10.129-.494-11.47-.484-11.527-.47-11.577-.459-11.634-.39-11.999-.312-12.354-.224-12.682-.197-12.776-.166-12.859-.139-12.951-.057-13.224 .026-13.495 .123-13.741 .162-13.843 .209-13.929 .251-14.024 .345-14.243 .439-14.463 .547-14.66 .589-14.736 .637-14.799 .681-14.872 .953-15.329 1.254-15.738 1.604-16.074 3.131-17.539 5.277-17.833 8.246-17.833 8.818-17.833 9.39-17.811 9.957-17.771 10.123-17.759 10.287-17.745 10.448-17.729 10.635-17.71 10.82-17.689 11.004-17.663 11.338-17.615 11.663-17.558 11.974-17.483 12.035-17.468 12.095-17.449 12.155-17.433 12.198-17.421 12.239-17.406 12.281-17.395 12.395-17.364 12.499-17.33 12.604-17.297 12.709-17.263 12.814-17.229 12.916-17.19 13.011-17.155 13.107-17.12 13.196-17.083 13.148-17.104 13.096-17.113 13.048-17.133 13.462-16.965 13.854-16.764 14.214-16.51 14.191-16.526 14.171-16.549 14.147-16.564 14.18-16.543 14.206-16.519 14.236-16.497 14.261-16.479 14.285-16.459 14.31-16.44 14.467-16.321 14.612-16.2 14.745-16.076 14.708-16.11 14.667-16.139 14.629-16.172 14.681-16.126 14.736-16.085 14.788-16.037 14.774-16.05 14.76-16.063 14.745-16.076 14.792-16.034 14.844-16.003 14.889-15.959 15.279-15.575 15.616-15.112 15.911-14.583 15.92-14.568 15.929-14.557 15.937-14.542 16.081-14.279 16.211-13.994 16.332-13.694" fill="#6d7071"/>
<path transform="matrix(1,0,0,-1,483.76368,165.7125)" d="M0 0C.065-.05 .127-.106 .189-.159 .127-.105 .066-.052 0 0" fill="#6d7071"/>
<path transform="matrix(1,0,0,-1,483.13569,165.30429)" d="M0 0C.118-.066 .233-.138 .345-.211 .235-.138 .12-.067 0 0" fill="#6d7071"/>
<path transform="matrix(1,0,0,-1,482.53028,165.0143)" d="M0 0C.102-.042 .204-.084 .301-.131 .206-.085 .104-.042 0 0" fill="#6d7071"/>
<path transform="matrix(1,0,0,-1,496.0312,186.9557)" d="M0 0C.15-.003 .296-.012 .454-.008 .359-.01 .266-.013 .174-.013 .112-.013 .061-.002 0 0M-1.286 .112C-1.186 .095-1.081 .083-.977 .069-1.08 .082-1.186 .095-1.286 .112M-2.374 .385C-2.322 .366-2.264 .354-2.211 .338-2.264 .354-2.322 .366-2.374 .385M-3.447 .909C-3.411 .887-3.378 .859-3.341 .837-3.378 .859-3.411 .887-3.447 .909M-6.679 14.081C-6.68 14.067-6.681 14.055-6.682 14.041-6.681 14.055-6.68 14.067-6.679 14.081M-6.549 15.396C-6.561 15.302-6.573 15.21-6.584 15.115-6.573 15.211-6.561 15.302-6.549 15.396M-6.369 16.528C-6.396 16.392-6.423 16.256-6.446 16.116-6.423 16.258-6.395 16.392-6.369 16.528M-6.146 17.502C-6.185 17.357-6.225 17.214-6.26 17.064-6.225 17.216-6.185 17.357-6.146 17.502M-5.891 18.326C-5.933 18.206-5.979 18.089-6.018 17.965-5.978 18.09-5.933 18.206-5.891 18.326M-5.649 18.942C-5.67 18.895-5.694 18.851-5.715 18.803-5.694 18.852-5.67 18.895-5.649 18.942M-4.348 20.935C-4.35 20.933-4.353 20.932-4.354 20.93-4.353 20.932-4.35 20.933-4.348 20.935M-3.669 21.518C-3.689 21.503-3.713 21.49-3.733 21.475-3.713 21.49-3.689 21.503-3.669 21.518M-2.924 21.974C-2.959 21.955-2.997 21.941-3.032 21.923-2.997 21.941-2.959 21.955-2.924 21.974M-2.122 22.311C-2.162 22.298-2.205 22.288-2.244 22.274-2.205 22.288-2.162 22.298-2.122 22.311M-1.312 22.535C-1.329 22.532-1.349 22.53-1.365 22.526-1.349 22.53-1.329 22.532-1.312 22.535M6.363 12.813C6.618 12.822 6.883 12.829 7.157 12.832 6.887 12.829 6.621 12.822 6.363 12.813M4.822 12.705C5.108 12.736 5.406 12.763 5.724 12.783 5.412 12.764 5.112 12.737 4.822 12.705M3.456 12.487C3.755 12.554 4.068 12.612 4.412 12.659 4.076 12.613 3.759 12.555 3.456 12.487M2.274 12.139C2.556 12.249 2.859 12.348 3.195 12.432 2.866 12.349 2.561 12.251 2.274 12.139M7.562 12.847C5.101 12.847 3.389 12.613 2.175 12.112L2.172 12.11V9.388H5.329L5.331 5.397C5.313 5.383 3.582 3.994 1.502 3.994H1.435C-.241 4.01-1.147 4.451-1.691 5.521-2.215 6.551-2.429 8.248-2.429 11.375-2.429 14.445-2.211 16.143-1.676 17.229-1.093 18.413-.067 18.94 1.65 18.94 4.521 18.94 7.67 18.598 8.855 18.47 9.127 18.439 9.291 18.423 9.326 18.423H9.331V21.757L9.327 21.758C6.189 22.516 4.239 22.735 .63 22.735-.127 22.735-.817 22.658-1.45 22.513-1.469 22.509-1.485 22.502-1.503 22.498-1.788 22.43-2.062 22.349-2.32 22.251-2.369 22.232-2.411 22.209-2.459 22.19-2.681 22.1-2.897 22.004-3.102 21.891-3.157 21.859-3.207 21.821-3.262 21.788-3.446 21.678-3.628 21.563-3.797 21.433-3.847 21.395-3.89 21.349-3.938 21.309-4.102 21.173-4.263 21.033-4.41 20.878-4.437 20.851-4.458 20.819-4.483 20.791-4.821 20.42-5.126 20.004-5.384 19.523-6.345 17.732-6.773 15.238-6.773 11.436-6.773 9.167-6.656 6.765-6.067 4.755-6.07 4.765-6.073 4.777-6.076 4.788-5.763 3.702-5.312 2.758-4.684 1.998-4.742 2.069-4.811 2.131-4.866 2.205-4.769 2.078-4.67 1.961-4.57 1.852-4.541 1.818-4.508 1.788-4.478 1.756-4.449 1.726-4.421 1.698-4.393 1.669-4.404 1.681-4.414 1.694-4.425 1.705-4.346 1.622-4.26 1.545-4.175 1.467-4.199 1.489-4.23 1.505-4.255 1.528-4.301 1.572-4.348 1.623-4.393 1.669-4.348 1.622-4.31 1.566-4.262 1.521-4.214 1.475-4.154 1.444-4.104 1.4-3.948 1.262-3.778 1.136-3.604 1.016-3.498 .943-3.397 .864-3.287 .8-3.023 .647-2.742 .515-2.438 .402-2.287 .347-2.12 .311-1.96 .266-1.775 .214-1.59 .164-1.391 .127-1.208 .093-1.016 .068-.821 .048-.619 .025-.408 .011-.192 .003-.067-.002 .044-.023 .174-.023 .312-.023 .455-.021 .598-.015 3.198 .077 4.397 .71 5.396 1.631L6.572 .138H9.671V12.783H9.666C8.924 12.847 8.2 12.847 7.562 12.847" fill="#6d7071"/>
<path transform="matrix(1,0,0,-1,489.96394,182.2008)" d="M0 0C.062-.217 .125-.42 .192-.611 .121-.414 .061-.207 0 0" fill="#6d7071"/>
<path transform="matrix(1,0,0,-1,522.3096,164.4654)" d="M0 0-4.856-10.706-9.277-.003-9.279 0H-13.993L-7.089-15.419V-22.353H-2.747V-15.421L4.712-.007 4.715 0Z" fill="#6d7071"/>
<path transform="matrix(1,0,0,-1,142.6445,36.692506)" d="M0 0V-56.625C0-60.639 3.267-63.906 7.281-63.906H85.412V-49.65H14.235V-6.967H85.412V7.281H7.281C3.267 7.281 0 4.015 0 0" fill="#6d7071"/>
<path transform="matrix(1,0,0,-1,526.9687,43.659807)" d="M0 0V14.249H-71.165V42.731H-85.405V-49.652C-85.405-53.667-82.139-56.934-78.123-56.934H0V-42.688H-71.165V0Z" fill="#6d7071"/>
<path transform="matrix(1,0,0,-1,341.9141,36.692506)" d="M0 0V-28.154C0-32.169 3.267-35.436 7.281-35.436H71.186V-49.65H0V-63.906H78.139C82.153-63.906 85.42-60.639 85.42-56.625V-28.47C85.42-24.455 82.153-21.188 78.139-21.188H14.234V-6.967H85.42V7.281H7.281C3.267 7.281 0 4.015 0 0" fill="#6d7071"/>
<path transform="matrix(1,0,0,-1,-85,258)" d="M398.449 171.649H341.52003V214.34H398.449ZM405.424 228.589H334.569C330.555 228.589 327.288 225.323 327.288 221.307V164.688C327.288 160.673 330.555 157.407 334.569 157.407H405.424C409.439 157.407 412.705 160.673 412.705 164.688V221.307C412.705 225.323 409.439 228.589 405.424 228.589" fill="#6d7071"/>
<path transform="matrix(1,0,0,-1,114.009799,84.6696)" d="M0 0-56.969-28.579-99.638-7.196V19.271L-113.593 10.748V-11.309C-113.593-12.656-113.22-13.976-112.514-15.123-111.808-16.271-110.799-17.199-109.596-17.808L-60.234-42.758C-59.207-43.277-58.078-43.537-56.949-43.537-55.833-43.537-54.717-43.283-53.698-42.774L-4.008-17.97C-2.794-17.364-1.775-16.434-1.062-15.278-.351-14.124 .025-12.797 .022-11.44L0-.008Z" fill="#6d7071"/>
<path transform="matrix(1,0,0,-1,112.953098,30.212494)" d="M0 0C-.706 1.148-1.715 2.076-2.918 2.684L-52.279 27.635C-54.323 28.668-56.769 28.675-58.816 27.651L-108.507 2.847C-109.721 2.241-110.739 1.311-111.451 .156-112.164-.999-112.539-2.326-112.536-3.682L-112.515-15.114V-15.123L-55.546 13.457-12.877-7.927V-34.394L1.079-25.87V-3.814C1.079-2.467 .706-1.148 0 0" fill="#6d7071"/>
</g>
</g>
</svg>
